M48
; DRILL file {KiCad (6.0.1)} date Sun Feb 20 06:36:00 2022
; FORMAT={-:-/ absolute / metric / decimal}
; #@! TF.CreationDate,2022-02-20T06:36:00+01:00
; #@! TF.GenerationSoftware,Kicad,Pcbnew,(6.0.1)
; #@! TF.FileFunction,Plated,1,2,PTH
FMAT,2
METRIC
; #@! TA.AperFunction,Plated,PTH,ComponentDrill
T1C0.700
%
G90
G05
T1
X104.797Y-57.644
X104.85Y-66.05
X105.25Y-43.65
X105.3Y-46.2
X105.3Y-48.85
X105.3Y-51.3
X105.3Y-53.9
X107.3Y-37.4
X107.7Y-61.55
X108.449Y-46.299
X108.65Y-50.7
X109.25Y-69.2
X109.35Y-78.4
X109.4Y-73.2
X109.45Y-82.4
X113.6Y-65.99
X116.7Y-48.8
X117.35Y-46.25
X120.45Y-41.8
X123.6Y-46.25
X123.65Y-51.35
X127.1Y-60.2
X128.0Y-45.95
X128.0Y-50.95
X146.3Y-58.65
T0
M30
