%TF.GenerationSoftware,KiCad,Pcbnew,(6.0.1)*%
%TF.CreationDate,2022-02-20T06:36:07+01:00*%
%TF.ProjectId,OK,4f4b2e6b-6963-4616-945f-706362585858,rev?*%
%TF.SameCoordinates,Original*%
%TF.FileFunction,Legend,Top*%
%TF.FilePolarity,Positive*%
%FSLAX46Y46*%
G04 Gerber Fmt 4.6, Leading zero omitted, Abs format (unit mm)*
G04 Created by KiCad (PCBNEW (6.0.1)) date 2022-02-20 06:36:07*
%MOMM*%
%LPD*%
G01*
G04 APERTURE LIST*
%ADD10C,0.120000*%
G04 APERTURE END LIST*
D10*
%TO.C, *%
X118980000Y-45020000D02*
X118980000Y-44370000D01*
X118980000Y-45020000D02*
X118980000Y-46695000D01*
X122100000Y-45020000D02*
X122100000Y-45670000D01*
X122100000Y-45020000D02*
X122100000Y-44370000D01*
X126460000Y-54522936D02*
X126460000Y-55977064D01*
X128280000Y-54522936D02*
X128280000Y-55977064D01*
X118047064Y-60160000D02*
X116592936Y-60160000D01*
X118047064Y-58340000D02*
X116592936Y-58340000D01*
X121070000Y-81347064D02*
X121070000Y-79892936D01*
X119250000Y-81347064D02*
X119250000Y-79892936D01*
X112870000Y-43820000D02*
X116320000Y-43820000D01*
X112870000Y-38700000D02*
X110920000Y-38700000D01*
X112870000Y-43820000D02*
X110920000Y-43820000D01*
X112870000Y-38700000D02*
X114820000Y-38700000D01*
X126850000Y-46832936D02*
X126850000Y-48287064D01*
X125030000Y-46832936D02*
X125030000Y-48287064D01*
X125377064Y-41310000D02*
X123922936Y-41310000D01*
X125377064Y-43130000D02*
X123922936Y-43130000D01*
X119620000Y-65097064D02*
X119620000Y-63642936D01*
X121440000Y-65097064D02*
X121440000Y-63642936D01*
X122372936Y-56820000D02*
X123827064Y-56820000D01*
X122372936Y-55000000D02*
X123827064Y-55000000D01*
X117120000Y-81317064D02*
X117120000Y-79862936D01*
X115300000Y-81317064D02*
X115300000Y-79862936D01*
X115190000Y-72197064D02*
X115190000Y-70742936D01*
X117010000Y-72197064D02*
X117010000Y-70742936D01*
X118213750Y-56481250D02*
X118213750Y-55693750D01*
X116515563Y-57650000D02*
X110760000Y-57650000D01*
X116515563Y-50830000D02*
X110760000Y-50830000D01*
X117580000Y-56585563D02*
X116515563Y-57650000D01*
X117580000Y-56585563D02*
X117580000Y-55300000D01*
X118607500Y-56087500D02*
X117820000Y-56087500D01*
X110760000Y-50830000D02*
X110760000Y-53180000D01*
X117580000Y-51894437D02*
X117580000Y-53180000D01*
X110760000Y-57650000D02*
X110760000Y-55300000D01*
X117580000Y-51894437D02*
X116515563Y-50830000D01*
X123050000Y-58040000D02*
X121375000Y-58040000D01*
X123050000Y-61160000D02*
X123700000Y-61160000D01*
X123050000Y-58040000D02*
X123700000Y-58040000D01*
X123050000Y-61160000D02*
X122400000Y-61160000D01*
X113627064Y-49690000D02*
X112172936Y-49690000D01*
X113627064Y-47870000D02*
X112172936Y-47870000D01*
X121070000Y-72374564D02*
X121070000Y-70920436D01*
X119250000Y-72374564D02*
X119250000Y-70920436D01*
X108592936Y-66890000D02*
X110047064Y-66890000D01*
X108592936Y-65070000D02*
X110047064Y-65070000D01*
X118960000Y-50130000D02*
X118960000Y-51805000D01*
X122080000Y-50130000D02*
X122080000Y-49480000D01*
X118960000Y-50130000D02*
X118960000Y-49480000D01*
X122080000Y-50130000D02*
X122080000Y-50780000D01*
X107027064Y-61790000D02*
X105572936Y-61790000D01*
X107027064Y-63610000D02*
X105572936Y-63610000D01*
X125130000Y-72407064D02*
X125130000Y-70952936D01*
X123310000Y-72407064D02*
X123310000Y-70952936D01*
X107027064Y-59430000D02*
X105572936Y-59430000D01*
X107027064Y-61250000D02*
X105572936Y-61250000D01*
X113627064Y-47260000D02*
X112172936Y-47260000D01*
X113627064Y-45440000D02*
X112172936Y-45440000D01*
X107097064Y-56750000D02*
X105642936Y-56750000D01*
X107097064Y-58570000D02*
X105642936Y-58570000D01*
%TD*%
M02*
