%TF.GenerationSoftware,KiCad,Pcbnew,(6.0.1)*%
%TF.CreationDate,2022-02-20T06:36:07+01:00*%
%TF.ProjectId,OK,4f4b2e6b-6963-4616-945f-706362585858,rev?*%
%TF.SameCoordinates,Original*%
%TF.FileFunction,Soldermask,Top*%
%TF.FilePolarity,Negative*%
%FSLAX46Y46*%
G04 Gerber Fmt 4.6, Leading zero omitted, Abs format (unit mm)*
G04 Created by KiCad (PCBNEW (6.0.1)) date 2022-02-20 06:36:07*
%MOMM*%
%LPD*%
G01*
G04 APERTURE LIST*
G04 Aperture macros list*
%AMRoundRect*
0 Rectangle with rounded corners*
0 $1 Rounding radius*
0 $2 $3 $4 $5 $6 $7 $8 $9 X,Y pos of 4 corners*
0 Add a 4 corners polygon primitive as box body*
4,1,4,$2,$3,$4,$5,$6,$7,$8,$9,$2,$3,0*
0 Add four circle primitives for the rounded corners*
1,1,$1+$1,$2,$3*
1,1,$1+$1,$4,$5*
1,1,$1+$1,$6,$7*
1,1,$1+$1,$8,$9*
0 Add four rect primitives between the rounded corners*
20,1,$1+$1,$2,$3,$4,$5,0*
20,1,$1+$1,$4,$5,$6,$7,0*
20,1,$1+$1,$6,$7,$8,$9,0*
20,1,$1+$1,$8,$9,$2,$3,0*%
G04 Aperture macros list end*
%ADD10C,1.800000*%
%ADD11RoundRect,0.350000X0.150000X-0.587500X0.150000X0.587500X-0.150000X0.587500X-0.150000X-0.587500X0*%
%ADD12RoundRect,0.450000X-0.625000X0.312500X-0.625000X-0.312500X0.625000X-0.312500X0.625000X0.312500X0*%
%ADD13RoundRect,0.450000X0.312500X0.625000X-0.312500X0.625000X-0.312500X-0.625000X0.312500X-0.625000X0*%
%ADD14RoundRect,0.450000X0.625000X-0.312500X0.625000X0.312500X-0.625000X0.312500X-0.625000X-0.312500X0*%
%ADD15RoundRect,0.350000X0.825000X0.150000X-0.825000X0.150000X-0.825000X-0.150000X0.825000X-0.150000X0*%
%ADD16RoundRect,0.450000X-0.312500X-0.625000X0.312500X-0.625000X0.312500X0.625000X-0.312500X0.625000X0*%
%ADD17RoundRect,0.450000X1.500000X0.550000X-1.500000X0.550000X-1.500000X-0.550000X1.500000X-0.550000X0*%
%ADD18RoundRect,0.350000X-0.587500X-0.150000X0.587500X-0.150000X0.587500X0.150000X-0.587500X0.150000X0*%
G04 APERTURE END LIST*
D10*
%TO.C,*%
X113600000Y-65990000D03*
%TD*%
D11*
%TO.C, *%
X119590000Y-45957500D03*
X121490000Y-45957500D03*
X120540000Y-44082500D03*
%TD*%
D10*
%TO.C,*%
X105300000Y-53900000D03*
%TD*%
%TO.C,*%
X123650000Y-51350000D03*
%TD*%
%TO.C,*%
X109400000Y-73200000D03*
%TD*%
D12*
%TO.C, *%
X127370000Y-53787500D03*
X127370000Y-56712500D03*
%TD*%
D10*
%TO.C,*%
X117350000Y-46250000D03*
%TD*%
%TO.C,*%
X120450000Y-41800000D03*
%TD*%
%TO.C,*%
X104850000Y-66050000D03*
%TD*%
D13*
%TO.C, *%
X115857500Y-59250000D03*
X118782500Y-59250000D03*
%TD*%
D14*
%TO.C, *%
X120160000Y-79157500D03*
X120160000Y-82082500D03*
%TD*%
D15*
%TO.C, *%
X115345000Y-43165000D03*
X110395000Y-43165000D03*
X115345000Y-39355000D03*
X110395000Y-40625000D03*
X115345000Y-40625000D03*
X115345000Y-41895000D03*
X110395000Y-41895000D03*
X110395000Y-39355000D03*
%TD*%
D10*
%TO.C,*%
X123600000Y-46250000D03*
%TD*%
D12*
%TO.C, *%
X125940000Y-49022500D03*
X125940000Y-46097500D03*
%TD*%
D13*
%TO.C, *%
X123187500Y-42220000D03*
X126112500Y-42220000D03*
%TD*%
D14*
%TO.C, *%
X120530000Y-65832500D03*
X120530000Y-62907500D03*
%TD*%
D16*
%TO.C, *%
X121637500Y-55910000D03*
X124562500Y-55910000D03*
%TD*%
D10*
%TO.C,*%
X105300000Y-51300000D03*
%TD*%
%TO.C,*%
X128000000Y-45950000D03*
%TD*%
%TO.C,*%
X107700000Y-61550000D03*
%TD*%
%TO.C,*%
X107300000Y-37400000D03*
%TD*%
D14*
%TO.C, *%
X116210000Y-79127500D03*
X116210000Y-82052500D03*
%TD*%
%TO.C, *%
X116100000Y-70007500D03*
X116100000Y-72932500D03*
%TD*%
D10*
%TO.C,*%
X146300000Y-58650000D03*
%TD*%
%TO.C,*%
X127100000Y-60200000D03*
%TD*%
%TO.C,*%
X109350000Y-78400000D03*
%TD*%
%TO.C,*%
X108650000Y-50700000D03*
%TD*%
D17*
%TO.C, *%
X111470000Y-54240000D03*
X116870000Y-54240000D03*
%TD*%
D18*
%TO.C, *%
X122112500Y-58650000D03*
X122112500Y-60550000D03*
X123987500Y-59600000D03*
%TD*%
D13*
%TO.C, *%
X114362500Y-48780000D03*
X111437500Y-48780000D03*
%TD*%
D10*
%TO.C,*%
X105300000Y-46200000D03*
%TD*%
D14*
%TO.C, *%
X120160000Y-70185000D03*
X120160000Y-73110000D03*
%TD*%
D16*
%TO.C, *%
X110782500Y-65980000D03*
X107857500Y-65980000D03*
%TD*%
D10*
%TO.C,*%
X105300000Y-48850000D03*
%TD*%
%TO.C,*%
X128000000Y-50950000D03*
%TD*%
D11*
%TO.C, *%
X119570000Y-51067500D03*
X121470000Y-51067500D03*
X120520000Y-49192500D03*
%TD*%
D13*
%TO.C, *%
X107762500Y-62700000D03*
X104837500Y-62700000D03*
%TD*%
D10*
%TO.C,*%
X105250000Y-43650000D03*
%TD*%
D14*
%TO.C, *%
X124220000Y-70217500D03*
X124220000Y-73142500D03*
%TD*%
D10*
%TO.C,*%
X109450000Y-82400000D03*
%TD*%
D13*
%TO.C, *%
X104837500Y-60340000D03*
X107762500Y-60340000D03*
%TD*%
D10*
%TO.C,*%
X116700000Y-48800000D03*
%TD*%
%TO.C,*%
X104796782Y-57644458D03*
%TD*%
%TO.C,*%
X108448630Y-46298630D03*
%TD*%
%TO.C,*%
X109250000Y-69200000D03*
%TD*%
D13*
%TO.C, *%
X114362500Y-46350000D03*
X111437500Y-46350000D03*
%TD*%
%TO.C, *%
X104907500Y-57660000D03*
X107832500Y-57660000D03*
%TD*%
M02*
