<?xml version="1.0" encoding="UTF-8" standalone="no"?>
<!-- Created with Inkscape (http://www.inkscape.org/) -->

<svg
   width="210mm"
   height="297mm"
   viewBox="0 0 210 297"
   version="1.1"
   id="svg1326"
   inkscape:version="1.1.2 (b8e25be833, 2022-02-05)"
   sodipodi:docname="bottomOK.svg"
   xmlns:inkscape="http://www.inkscape.org/namespaces/inkscape"
   xmlns:sodipodi="http://sodipodi.sourceforge.net/DTD/sodipodi-0.dtd"
   xmlns="http://www.w3.org/2000/svg"
   xmlns:svg="http://www.w3.org/2000/svg">
  <sodipodi:namedview
     id="namedview1328"
     pagecolor="#ffffff"
     bordercolor="#666666"
     borderopacity="1.0"
     inkscape:pageshadow="2"
     inkscape:pageopacity="0.0"
     inkscape:pagecheckerboard="0"
     inkscape:document-units="mm"
     showgrid="false"
     inkscape:zoom="2.1215981"
     inkscape:cx="395.22094"
     inkscape:cy="658.4659"
     inkscape:window-width="1920"
     inkscape:window-height="1046"
     inkscape:window-x="-11"
     inkscape:window-y="-11"
     inkscape:window-maximized="1"
     inkscape:current-layer="layer1" />
  <defs
     id="defs1323">
    <clipPath
       clipPathUnits="userSpaceOnUse"
       id="clipPath1346">
      <path
         d="M 66.668,74.9922 H 4885.68 V 6950 H 66.668 Z"
         id="path1344" />
    </clipPath>
  </defs>
  <g
     inkscape:label="Calque 1"
     inkscape:groupmode="layer"
     id="layer1">
    <path
       style="fill:#0000ff;stroke-width:0.0423423;stroke:#0000ff"
       d="m 139.80765,159.09314 v -25.93328 l -12.54437,-0.026 c -6.89941,-0.0143 -24.56792,-0.0311 -39.263362,-0.0375 l -26.71899,-0.0115 -0.0106,25.91037 c -0.006,14.2507 0.004,25.92373 0.0212,25.94006 0.0175,0.0163 17.69077,0.0435 39.273972,0.0604 l 39.24219,0.0307 z m -68.586492,25.71098 -9.79202,-1e-5 v -25.78144 -25.78145 l 26.09441,0.0178 c 14.351932,0.01 31.948982,0.0294 39.104572,0.0435 l 13.01015,0.0258 v 25.76613 25.76613 l -29.31254,-0.0282 c -16.121902,-0.0155 -33.718962,-0.0282 -39.104572,-0.0282 z m 52.644022,-0.49488 c 1.30594,-0.0552 2.84678,-0.33758 4.1472,-0.75997 2.43766,-0.79179 4.50214,-2.03366 6.3286,-3.80695 2.87304,-2.78939 4.578,-6.44703 4.87394,-10.45608 0.033,-0.44751 0.0422,-3.57416 0.0309,-10.58518 -0.0143,-8.90233 -0.0233,-10.00357 -0.085,-10.45816 -0.20923,-1.54048 -0.53382,-2.79767 -1.07668,-4.1702 -2.10751,-5.32847 -7.03813,-9.20013 -12.72774,-9.99417 -1.2152,-0.16959 -1.54878,-0.17383 -12.33123,-0.15672 -11.29053,0.0179 -10.62123,0.004 -11.94716,0.24311 -4.9153,0.88529 -9.098422,3.92489 -11.454962,8.32357 -0.31334,0.58488 -0.72656,1.51203 -0.92291,2.07077 -0.0737,0.20958 -0.26982,0.6621 -0.43592,1.00559 l -0.30201,0.62452 h -0.50362 -0.50363 l -0.1785,-0.18365 c -0.18911,-0.19456 -0.34746,-0.24821 -0.61352,-0.20787 -0.19197,0.0291 -0.44997,0.28872 -0.48791,0.49095 -0.0548,0.29183 0.12383,0.65256 0.3602,0.72758 0.0774,0.0246 0.0804,0.0959 0.0804,1.8977 v 1.87218 l -0.125,0.0738 c -0.48902,0.28886 -0.40622,1.02928 0.13129,1.17401 0.24461,0.0659 0.44698,0.0108 0.62887,-0.17106 0.28106,-0.28104 0.27049,-0.62468 -0.0281,-0.91489 l -0.18358,-0.17841 v -1.84449 -1.84448 l 0.19054,-0.19054 c 0.1048,-0.10479 0.19055,-0.22863 0.19055,-0.2752 0,-0.0803 0.0322,-0.0853 0.62457,-0.0964 l 0.62458,-0.0117 0.30373,-0.59277 c 0.16705,-0.32602 0.39333,-0.84046 0.50284,-1.1432 1.9371,-5.35513 6.608862,-9.29607 12.171822,-10.26775 1.37208,-0.23966 0.68021,-0.22552 11.89863,-0.24325 10.77039,-0.017 11.07319,-0.0131 12.26646,0.16063 4.42789,0.64449 8.32412,3.07823 10.87185,6.79099 1.40265,2.04406 2.25572,4.33503 2.63781,7.08404 0.062,0.44607 0.0708,1.52565 0.085,10.40544 0.0112,6.98935 0.002,10.0948 -0.0312,10.54284 -0.16292,2.20301 -0.77288,4.35888 -1.76696,6.24525 -2.29211,4.34951 -6.49403,7.41916 -11.2963,8.25235 -1.39936,0.24279 -0.75153,0.22892 -11.53871,0.24706 -10.34577,0.0174 -10.6701,0.013 -11.91308,-0.16187 -4.84168,-0.68113 -9.117672,-3.57111 -11.553062,-7.80828 -1.09431,-1.90392 -1.72778,-3.83641 -2.03332,-6.20291 -0.0891,-0.69008 -0.0904,-0.81068 -0.10755,-9.86539 -0.0119,-6.3112 -0.003,-9.49526 0.0296,-10.22129 0.082,-1.84117 0.3457,-3.23452 0.90236,-4.7677 1.86118,-5.12613 6.306292,-8.86496 11.675462,-9.82034 1.34786,-0.23984 0.7316,-0.22683 11.64457,-0.24566 10.49063,-0.0181 11.00629,-0.0113 12.24005,0.16111 4.65832,0.65099 8.78525,3.44641 11.12288,7.53418 0.82747,1.44699 1.44256,3.15197 1.74674,4.84183 0.23658,1.31432 0.22407,0.73681 0.24273,11.20531 0.0123,6.89 0.004,9.87594 -0.0304,10.37347 -0.14924,2.1892 -0.69462,4.19806 -1.64236,6.04945 -1.65947,3.24173 -4.4763,5.81055 -7.86188,7.16967 -1.32388,0.53146 -2.41161,0.80724 -4.00383,1.01509 -0.6935,0.0905 -0.76845,0.0913 -10.12019,0.10834 -9.89826,0.018 -10.97813,0.003 -12.12752,-0.16317 -4.68716,-0.67955 -8.679052,-3.35496 -11.072112,-7.42063 -1.06733,-1.81332 -1.74848,-3.8959 -2.00288,-6.12364 -0.0444,-0.38871 -0.0556,-2.51924 -0.0556,-10.56401 0,-11.10754 -0.0164,-10.36174 0.25763,-11.74955 0.88357,-4.47559 3.74861,-8.21338 7.882532,-10.28368 1.11923,-0.56052 2.57875,-1.0354 3.90668,-1.27111 1.28138,-0.22745 0.89307,-0.221 12.38558,-0.20567 l 10.62831,0.0142 0.58575,0.0928 c 1.1964,0.18957 2.04302,0.40084 3.01348,0.752 2.59165,0.93781 4.83785,2.57332 6.56922,4.78324 1.39081,1.77523 2.40419,4.06451 2.80762,6.34259 0.23822,1.34519 0.228,0.89647 0.24608,10.8054 0.0175,9.56565 0.002,10.67174 -0.16024,11.77862 -0.51147,3.48064 -2.12178,6.50275 -4.699,8.81871 -2.2743,2.04376 -5.07566,3.28852 -8.21471,3.65015 -0.3914,0.0451 -2.51856,0.0561 -10.84003,0.0561 h -10.35307 l -0.65473,-0.0956 c -1.76374,-0.25752 -3.05186,-0.64974 -4.55357,-1.38654 -1.59088,-0.78055 -2.863922,-1.70407 -4.061682,-2.94652 -2.0403,-2.11644 -3.37048,-4.70623 -3.87978,-7.55377 -0.23499,-1.3138 -0.22277,-0.75157 -0.24117,-11.09327 -0.0177,-9.9562 -0.013,-10.29688 0.15996,-11.47433 0.51237,-3.48861 2.32989,-6.65456 5.07977,-8.84847 2.112612,-1.68547 4.572722,-2.69369 7.304322,-2.99351 0.40654,-0.0446 2.61174,-0.0558 11.03057,-0.0558 11.52246,0 10.76039,-0.015 12.11035,0.23771 3.53432,0.66149 6.74205,2.74461 8.83113,5.735 1.10735,1.5851 1.91656,3.56338 2.2591,5.5228 0.20032,1.14592 0.19441,0.79799 0.19441,11.45317 0,11.12358 0.0179,10.31954 -0.26019,11.70721 -0.71272,3.5567 -2.76452,6.65761 -5.77381,8.726 -1.63757,1.12556 -3.5522,1.89961 -5.52587,2.23401 -1.19222,0.20199 -0.88441,0.19677 -11.58105,0.19677 -10.66101,0 -10.38981,0.005 -11.55577,-0.19247 -5.82957,-0.98489 -10.443502,-5.59539 -11.414662,-11.40616 -0.20003,-1.19684 -0.1982,-1.07939 -0.18199,-11.64643 0.0153,-9.96689 0.0156,-9.99376 0.10551,-10.52167 0.28485,-1.67146 0.65022,-2.81152 1.33789,-4.17454 1.08929,-2.15908 2.93108,-4.11906 5.050482,-5.37459 1.31835,-0.78098 2.85089,-1.35822 4.33647,-1.63335 1.25129,-0.23174 0.69872,-0.22019 11.41167,-0.23852 10.29983,-0.0176 10.99728,-0.009 12.08918,0.15752 3.74098,0.56894 7.03224,2.65075 9.09953,5.75568 0.4083,0.61325 0.49446,0.7629 0.83677,1.45332 0.68975,1.39123 1.0822,2.70071 1.31664,4.3932 0.0596,0.43047 0.0694,1.59625 0.0843,10.05593 0.0172,9.74814 0.0102,10.3161 -0.14081,11.34731 -0.2047,1.39811 -0.58131,2.61237 -1.22129,3.93769 -1.14147,2.36383 -2.92037,4.27839 -5.24661,5.6467 -1.30291,0.76638 -2.84079,1.32489 -4.38807,1.5936 -1.15009,0.19973 -1.00593,0.19753 -11.85804,0.18085 l -10.26839,-0.0158 -0.52998,-0.0908 c -0.29148,-0.05 -0.71068,-0.13095 -0.93156,-0.17998 -3.89914,-0.86551 -7.182152,-3.39702 -8.986982,-6.92983 -0.74558,-1.45939 -1.1977,-2.96187 -1.39306,-4.62934 -0.0463,-0.39516 -0.0571,-2.36996 -0.0571,-10.47933 0,-10.9577 -0.0178,-10.10593 0.23888,-11.40781 1.00189,-5.08079 5.122642,-9.06661 10.283572,-9.94684 1.0656,-0.18174 1.07664,-0.18189 12.00449,-0.16597 l 10.45894,0.0152 0.55047,0.0922 c 1.49584,0.25062 2.56535,0.58452 3.7686,1.17657 1.23792,0.6091 2.13278,1.23249 3.1494,2.19399 2.20316,2.08368 3.56108,4.88739 3.85794,7.9655 0.036,0.37373 0.0449,3.14487 0.0335,10.47933 -0.0154,9.94021 -0.0157,9.97289 -0.10552,10.5005 -0.25394,1.49219 -0.57504,2.51174 -1.1868,3.76832 -0.64806,1.33111 -1.44412,2.4203 -2.54445,3.48136 -2.13446,2.05827 -4.83694,3.26997 -7.81959,3.50605 -0.41881,0.0332 -3.53236,0.0424 -10.60714,0.0315 l -10.01433,-0.0155 -0.55047,-0.0921 c -1.065,-0.17819 -1.83263,-0.37576 -2.6465,-0.68117 -4.2233,-1.58482 -7.266182,-5.23799 -8.045332,-9.65895 -0.19429,-1.10241 -0.19055,-0.8835 -0.19055,-11.15759 0,-10.14684 -0.002,-10.014 0.17399,-11.02975 0.86963,-5.01654 4.854042,-8.95867 9.884102,-9.77925 1.05059,-0.17138 1.44858,-0.17673 11.9819,-0.16094 11.07937,0.0166 10.27618,-8.9e-4 11.49636,0.24999 3.03117,0.62318 5.72098,2.41736 7.4815,4.99038 1.13519,1.6591 1.85273,3.71352 2.02598,5.80068 0.0338,0.40773 0.043,3.36947 0.0321,10.33113 l -0.0154,9.75954 -0.0912,0.52926 c -0.12626,0.73276 -0.23668,1.21235 -0.41306,1.79422 -1.3251,4.3713 -5.01049,7.58309 -9.55123,8.32383 -1.02743,0.16761 -1.66296,0.17624 -11.7061,0.15891 -9.51579,-0.0164 -9.66261,-0.0179 -10.22605,-0.10451 -2.44228,-0.37535 -4.4434,-1.26788 -6.20475,-2.76739 -2.111712,-1.7978 -3.565172,-4.34125 -4.038072,-7.06634 -0.17983,-1.03621 -0.17953,-1.01617 -0.16423,-11.30497 0.0159,-10.71093 7.6e-4,-9.97646 0.22818,-11.05093 0.31774,-1.50121 0.99132,-3.02369 1.89199,-4.27641 1.671232,-2.32449 4.264982,-3.98185 7.061762,-4.51235 1.11793,-0.21205 0.58494,-0.20156 11.11242,-0.21872 6.44235,-0.0105 10.08754,-9.3e-4 10.59005,0.0278 1.80031,0.10286 3.02066,0.41514 4.56905,1.16921 1.16267,0.56621 2.06614,1.21128 2.98832,2.13363 1.63695,1.63727 2.65483,3.54454 3.10808,5.82389 0.21953,1.10397 0.21284,0.75217 0.21284,11.20029 0,9.22292 -0.004,9.79097 -0.0775,10.33114 -0.25675,1.89294 -0.79991,3.37148 -1.78873,4.86918 -0.47562,0.72039 -0.8312,1.15653 -1.43423,1.7592 -1.8405,1.83939 -4.14414,2.95107 -6.75138,3.25804 -0.45814,0.0539 -1.94625,0.0628 -10.46373,0.0622 -6.09925,-4.2e-4 -10.09299,-0.0166 -10.35308,-0.0418 -3.93017,-0.38169 -7.34368,-2.74402 -9.084012,-6.28663 -0.65745,-1.3383 -0.98219,-2.47861 -1.12436,-3.94815 -0.095,-0.98248 -0.0635,-19.92401 0.0341,-20.46127 0.25575,-1.40818 0.49939,-2.20048 0.98142,-3.19166 1.486712,-3.05704 4.281072,-5.20065 7.626162,-5.85019 0.98356,-0.19098 0.78155,-0.18768 11.49637,-0.18803 6.54622,-4.2e-4 10.30224,0.0149 10.59517,0.0427 3.8254,0.36273 7.16052,2.72768 8.74651,6.20219 0.36673,0.8034 0.60752,1.57365 0.82726,2.64626 l 0.0911,0.44458 0.0133,9.90773 c 0.009,6.45408 -0.002,10.10213 -0.0298,10.46541 -0.0498,0.64448 -0.16008,1.22469 -0.36754,1.93389 -1.13963,3.89581 -4.39628,6.81333 -8.39595,7.52166 -0.97954,0.17347 -1.2005,0.17655 -11.48003,0.15993 -9.07781,-0.0147 -9.92323,-0.0219 -10.32614,-0.0883 -2.4488,-0.40355 -4.4232,-1.39079 -6.06382,-3.03203 -1.62817,-1.6288 -2.671522,-3.67389 -3.023102,-5.9256 -0.1435,-0.91914 -0.15395,-1.75055 -0.13988,-11.14081 l 0.0139,-9.29379 0.0953,-0.58472 c 0.25495,-1.56384 0.76771,-2.89217 1.597622,-4.13876 1.63016,-2.44863 4.15263,-3.99885 7.17542,-4.40978 0.60299,-0.082 20.93812,-0.08 21.48952,0.002 1.30878,0.19482 2.23761,0.47782 3.29199,1.003 3.05867,1.52352 5.10077,4.46433 5.49698,7.91614 0.0225,0.1964 0.0392,4.42146 0.0397,10.04092 8.1e-4,10.42182 0.008,10.03096 -0.21002,11.0721 -0.28803,1.37416 -0.91472,2.75151 -1.77484,3.9008 -1.53531,2.05146 -3.75726,3.41545 -6.32602,3.88335 -0.91587,0.16683 -1.57159,0.17596 -11.50599,0.16018 -8.76046,-0.0139 -9.58524,-0.0211 -9.99315,-0.0875 -1.27064,-0.2068 -2.0701,-0.45379 -3.11228,-0.96152 -2.62212,-1.27744 -4.58297,-3.68578 -5.296152,-6.50479 -0.31576,-1.24814 -0.29324,-0.36586 -0.29324,-11.48957 0,-9.38172 0.004,-9.99627 0.0755,-10.39465 0.18004,-1.00931 0.41829,-1.7611 0.831922,-2.62513 1.31319,-2.74312 3.84728,-4.65897 6.86265,-5.18836 0.9253,-0.16245 1.69598,-0.17275 11.75042,-0.15692 10.64688,0.0168 9.98124,7.6e-4 11.11098,0.26725 2.02486,0.47765 3.90646,1.66622 5.19023,3.27855 0.99615,1.25111 1.61954,2.64546 1.9403,4.33993 0.0874,0.46178 0.0883,0.54821 0.10348,10.16177 0.0107,6.7537 0.001,9.84379 -0.0306,10.18295 -0.24642,2.6125 -1.60015,5.03956 -3.68996,6.61562 -1.23777,0.93348 -2.60449,1.51404 -4.22899,1.79641 -0.4221,0.0734 -0.96025,0.0773 -10.62832,0.0773 -11.06112,0 -10.4229,0.0133 -11.47276,-0.23996 -3.94632,-0.95217 -6.81025,-4.30349 -7.158212,-8.37638 -0.0356,-0.41718 -0.0447,-3.13957 -0.0335,-10.07709 0.0169,-10.49686 -0.004,-9.68915 0.283162,-10.80104 0.65661,-2.54018 2.40045,-4.62984 4.80322,-5.75574 0.44589,-0.20893 1.37407,-0.52005 1.82768,-0.61263 0.95149,-0.19419 0.71909,-0.19031 11.36772,-0.18994 6.41043,4.3e-4 10.19649,0.0157 10.43937,0.0426 1.63811,0.18172 3.06823,0.73852 4.38259,1.7063 0.49783,0.36655 1.37276,1.23799 1.74379,1.73683 0.9075,1.2201 1.5025,2.6812 1.68374,4.13462 0.0303,0.24301 0.0452,3.51837 0.046,10.12165 0.001,8.61753 -0.007,9.81376 -0.0646,10.20055 -0.14474,0.96357 -0.3999,1.77368 -0.83038,2.63646 -1.28317,2.57171 -3.63595,4.28547 -6.53775,4.76212 -0.43993,0.0723 -1.02393,0.0765 -10.52245,0.0765 -9.58308,0 -10.0786,-0.004 -10.52245,-0.0782 -2.35117,-0.3948 -4.32933,-1.57876 -5.71301,-3.41933 -0.78571,-1.04515 -1.35762,-2.35826 -1.5926,-3.65665 -0.16468,-0.90989 -0.17331,-1.52465 -0.15587,-11.09466 0.0184,-10.09488 0,-9.36933 0.26421,-10.42454 0.71299,-2.84763 2.98656,-5.11894 5.84191,-5.83609 1.05718,-0.26553 0.44432,-0.25225 11.64492,-0.25225 11.37423,0 10.44384,-0.0221 11.56338,0.27503 2.18298,0.57943 4.03952,2.06735 5.07074,4.06395 0.40303,0.78032 0.5928,1.32507 0.82165,2.35848 0.0681,0.30765 0.0743,1.02232 0.0874,10.09063 0.0106,7.35823 0.002,9.86893 -0.0364,10.20412 -0.19386,1.70721 -0.9753,3.35511 -2.19262,4.62381 -0.7104,0.74037 -1.37876,1.23087 -2.2684,1.66474 -1.0547,0.51436 -1.93915,0.74564 -3.15841,0.8259 -0.4804,0.0316 -3.65527,0.0413 -10.16253,0.0311 -10.39006,-0.0163 -9.66197,0.002 -10.713,-0.26355 -3.24999,-0.81993 -5.66951,-3.59674 -6.05336,-6.94725 -0.0284,-0.24833 -0.0436,-3.65822 -0.0438,-9.8728 -4.2e-4,-8.34883 0.008,-9.55023 0.0653,-9.96438 0.19837,-1.4221 0.76506,-2.69601 1.69287,-3.8055 1.05243,-1.25853 2.49229,-2.11164 4.2331,-2.50811 l 0.42344,-0.0964 10.33191,-0.0144 c 7.55283,-0.0105 10.43441,-0.001 10.713,0.0338 2.98899,0.37817 5.45521,2.49601 6.26114,5.37668 0.27376,0.97852 0.25216,0.12629 0.26987,10.64869 0.0115,6.82956 0.003,9.70234 -0.031,10.03475 -0.25005,2.47059 -1.67322,4.61966 -3.84691,5.80909 -0.66065,0.3615 -1.24124,0.57123 -2.17657,0.78626 l -0.39182,0.0901 -9.92964,0.0148 c -7.13986,0.0107 -10.04861,0.002 -10.35308,-0.0326 -2.54372,-0.28492 -4.76827,-1.86997 -5.88153,-4.19073 -0.38423,-0.80098 -0.6099,-1.60377 -0.70054,-2.49201 -0.0615,-0.60319 -0.0621,-18.7087 -5.9e-4,-19.31956 0.30072,-2.9864 2.447,-5.35028 5.46054,-6.01419 l 0.44461,-0.0979 10.09902,-0.013 c 7.13328,-0.009 10.2358,7.6e-4 10.5648,0.0337 3.04637,0.3051 5.47986,2.59133 6.01087,5.64714 0.0574,0.33043 0.0654,1.53497 0.0663,10.07709 10e-4,8.59488 -0.006,9.74527 -0.0648,10.08286 -0.52733,3.0471 -2.92131,5.2964 -6.01412,5.65067 -0.51563,0.0591 -19.28633,0.0599 -19.81522,9.4e-4 -1.42284,-0.15877 -2.6406,-0.67359 -3.74336,-1.58254 -0.65862,-0.54287 -1.34325,-1.43978 -1.73491,-2.27286 -0.38997,-0.82946 -0.56859,-1.53608 -0.64057,-2.53401 -0.0566,-0.78518 -0.0562,-17.96266 5.1e-4,-18.6966 0.20085,-2.60125 1.83873,-4.69384 4.28752,-5.47782 0.94051,-0.3011 0.10366,-0.28051 11.40052,-0.28051 11.29794,0 10.4097,-0.0218 11.38781,0.27983 1.19077,0.36726 2.33119,1.17538 3.09812,2.19538 0.34532,0.45927 0.7273,1.2092 0.91885,1.80396 0.3047,0.94606 0.28766,0.25784 0.27304,11.027 -0.0146,10.79503 0.0147,9.77006 -0.30732,10.73978 -0.5109,1.53856 -1.63161,2.81881 -3.09077,3.53078 -0.83041,0.40517 -1.43008,0.56715 -2.34863,0.63439 -0.70705,0.0517 -18.58297,0.0515 -19.24674,-4.2e-4 -0.85187,-0.0665 -1.48022,-0.2299 -2.22123,-0.57783 -1.90558,-0.89473 -3.23861,-2.75235 -3.47503,-4.84257 -0.0315,-0.27889 -0.041,-3.3236 -0.0309,-9.9289 0.0136,-8.84404 0.0199,-9.5479 0.0876,-9.82305 0.28281,-1.14872 0.76021,-2.02416 1.51236,-2.77332 0.74274,-0.73979 1.53906,-1.19101 2.60056,-1.47356 l 0.42566,-0.1133 10.22605,-0.0128 c 9.32891,-0.0117 10.26319,-0.007 10.64948,0.0568 2.04151,0.33583 3.78591,1.87615 4.36081,3.85065 0.24639,0.84619 0.23622,0.35576 0.22276,10.74302 l -0.0124,9.53795 -0.11092,0.44458 c -0.19893,0.79735 -0.49848,1.44045 -0.95978,2.06056 -0.89134,1.19818 -2.22528,1.98124 -3.70291,2.17369 -0.24131,0.0314 -3.35473,0.0412 -10.15068,0.0319 -9.26047,-0.0127 -9.82017,-0.0177 -10.12019,-0.0895 -1.17171,-0.28071 -2.084,-0.79136 -2.8622,-1.60211 -0.72019,-0.75032 -1.17981,-1.62485 -1.42163,-2.70498 l -0.0988,-0.44114 v -9.54784 c 0,-10.36832 -0.013,-9.78599 0.23565,-10.54983 0.562,-1.72642 2.07409,-3.00267 3.88003,-3.27486 0.62442,-0.0941 19.93806,-0.0941 20.56248,0 1.74713,0.26333 3.23141,1.47755 3.81869,3.1239 0.31912,0.8946 0.29421,0 0.29495,10.59494 5.5e-4,7.77316 -0.01,9.54162 -0.0564,9.80188 -0.18007,1.00159 -0.64578,1.90841 -1.33779,2.60487 -0.70054,0.70505 -1.42093,1.09766 -2.50289,1.36406 -0.27067,0.0666 -1.02247,0.0732 -9.90496,0.0859 -6.79091,0.01 -9.73271,0 -10.02315,-0.0327 -2.36086,-0.26716 -4.1237,-2.11098 -4.31099,-4.50905 -0.0533,-0.68295 -0.0531,-17.88223 4.2e-4,-18.52592 0.0909,-1.09677 0.51229,-1.99694 1.27959,-2.73352 0.57225,-0.54934 1.24223,-0.91407 2.02372,-1.10167 0.30024,-0.0721 0.85401,-0.077 10.14136,-0.0903 6.54241,-0.009 9.95815,5.1e-4 10.22605,0.0295 0.76123,0.0825 1.3594,0.29429 1.96054,0.69425 0.36581,0.24338 0.88569,0.75181 1.12628,1.10146 0.21225,0.30847 0.50397,0.95402 0.60897,1.34758 l 0.094,0.35228 v 9.65368 9.65369 l -0.0982,0.35989 c -0.33306,1.21994 -1.147,2.20373 -2.25748,2.7286 -0.52363,0.2475 -0.92739,0.3551 -1.51873,0.40474 -0.65808,0.0552 -18.41015,0.0555 -19.03357,4.2e-4 -1.09523,-0.097 -1.95338,-0.48808 -2.69061,-1.2261 -0.54314,-0.54371 -0.90308,-1.17927 -1.11305,-1.96537 l -0.092,-0.34433 v -9.59018 c 0,-10.78979 -0.0323,-9.73943 0.3232,-10.50042 0.38276,-0.81925 1.04445,-1.44706 1.87613,-1.78006 0.67724,-0.27116 -0.0609,-0.25491 11.01196,-0.24246 l 10.07784,0.0113 0.30975,0.0961 c 1.22006,0.37869 2.06826,1.22678 2.45267,2.45237 l 0.11696,0.37292 v 9.569 9.56901 l -0.11696,0.37291 c -0.21397,0.68219 -0.50305,1.14239 -1.01833,1.62114 -0.45598,0.42365 -0.86368,0.6499 -1.53497,0.85182 -0.2377,0.0715 -0.77987,0.0763 -9.90587,0.0885 -7.17926,0.01 -9.73582,4.2e-4 -9.97198,-0.0363 -1.38452,-0.21449 -2.48684,-1.22323 -2.88929,-2.64404 l -0.096,-0.33872 -0.0112,-9.29249 c -0.0121,-9.99766 -0.0192,-9.63628 0.2012,-10.21828 0.13303,-0.35127 0.46963,-0.83371 0.7751,-1.11093 0.32534,-0.29524 0.90099,-0.58195 1.35148,-0.67314 0.28997,-0.0587 1.41523,-0.066 10.13239,-0.066 10.93553,0 10.14057,-0.0219 10.79769,0.297 0.7969,0.38668 1.33506,1.03855 1.57248,1.90472 0.0713,0.26011 0.0754,0.79097 0.0756,9.67485 0,8.93186 -0.004,9.41334 -0.0762,9.67486 -0.29047,1.04586 -1.05121,1.80728 -2.10115,2.10302 -0.26312,0.0741 -0.7013,0.0775 -9.95081,0.0775 -9.26298,0 -9.68728,-0.003 -9.95009,-0.0778 -0.5218,-0.14791 -0.972,-0.41467 -1.34743,-0.79841 -0.3743,-0.38258 -0.60003,-0.78229 -0.73102,-1.29444 -0.0796,-0.31134 -0.0818,-0.56735 -0.0813,-9.65976 4.2e-4,-7.96056 0.009,-9.37352 0.061,-9.56727 0.19737,-0.7415 0.7842,-1.35126 1.52462,-1.5842 l 0.29817,-0.0938 h 9.90864 9.90847 l 0.29816,0.094 c 0.7434,0.23387 1.32503,0.8481 1.52309,1.60843 0.0549,0.21081 0.0631,1.43953 0.0631,9.51805 0,8.19272 -0.008,9.30507 -0.0648,9.52491 -0.19968,0.76655 -0.79721,1.37248 -1.58368,1.60595 -0.2086,0.0619 -1.12219,0.0683 -9.82668,0.0683 -8.66104,0 -9.61911,-0.007 -9.82668,-0.0675 -0.59067,-0.17349 -1.14317,-0.62011 -1.38775,-1.12181 -0.28105,-0.57652 -0.26263,0.16437 -0.25055,-10.07577 l 0.011,-9.2913 0.11382,-0.24284 c 0.15725,-0.3355 0.29823,-0.50836 0.5554,-0.68103 0.45946,-0.30847 -0.45651,-0.28476 10.53215,-0.27261 l 9.88589,0.0109 0.26348,0.1217 c 0.32283,0.14911 0.64829,0.47951 0.80799,0.82028 l 0.11415,0.24356 -0.001,9.33613 -10e-4,9.33613 -0.0968,0.24332 c -0.13494,0.33916 -0.45204,0.67341 -0.80252,0.84594 l -0.28161,0.13862 h -9.63501 -9.63502 l -0.28216,-0.1389 c -0.46194,-0.22739 -0.78924,-0.66056 -0.88322,-1.16891 -0.0253,-0.13691 -0.0364,-3.65495 -0.0295,-9.34576 l 0.0111,-9.12619 0.12835,-0.20758 c 0.1412,-0.22838 0.33047,-0.37614 0.56534,-0.44138 0.10065,-0.028 3.47189,-0.042 9.82876,-0.0409 7.97288,0.001 9.70353,0.0116 9.83445,0.0583 0.24393,0.087 0.4364,0.25563 0.54605,0.47828 l 0.0996,0.20227 v 9.16676 c 0,7.44162 -0.0104,9.19618 -0.0554,9.32302 -0.0828,0.23375 -0.35967,0.48797 -0.61339,0.56331 -0.1883,0.0559 -1.35524,0.0637 -9.50387,0.0637 -6.63575,0 -9.34224,-0.0134 -9.47486,-0.0467 -0.23327,-0.0587 -0.51703,-0.2983 -0.61887,-0.52249 -0.075,-0.16511 -0.078,-0.52444 -0.0789,-9.32135 l -9.3e-4,-9.14962 0.0891,-0.0806 c 0.0871,-0.0788 0.30927,-0.0807 9.75582,-0.0807 9.44655,0 9.66871,0.002 9.75581,0.0807 l 0.0891,0.0806 v 9.0967 c 0,9.04024 -5.1e-4,9.09721 -0.0847,9.18137 -0.0842,0.0842 -0.14114,0.0847 -9.44268,0.0847 -9.30154,0 -9.35851,-5.1e-4 -9.44269,-0.0847 -0.0836,-0.0836 -0.0847,-0.14113 -0.0847,-4.31165 v -4.22697 l 0.22596,0.0187 c 0.41069,0.0341 0.71537,-0.23245 0.71537,-0.62572 0,-0.50591 -0.57334,-0.81425 -0.98897,-0.53184 -0.31102,0.21133 -0.29111,-0.13193 -0.29111,5.01996 0,5.12281 -0.0162,4.82543 0.27184,5.00105 0.12657,0.0772 0.40982,0.0795 9.60162,0.0797 h 9.47119 l 0.13603,-0.11446 c 0.26987,-0.22705 0.25156,0.46293 0.25156,-9.48216 0,-8.97217 -0.001,-9.09351 -0.0838,-9.26431 -0.0461,-0.0952 -0.14612,-0.21077 -0.2223,-0.25683 -0.1368,-0.0827 -0.25898,-0.0839 -9.80823,-0.0947 -6.3003,-0.007 -9.7241,0.004 -9.8258,0.0311 -0.0858,0.0231 -0.21234,0.10074 -0.28109,0.1725 l -0.12502,0.13047 -0.0115,9.28043 c -0.0107,8.62655 -0.006,9.29377 0.06,9.46977 0.0968,0.25616 0.39395,0.56333 0.66231,0.68467 l 0.22077,0.0998 h 9.54855 9.54854 l 0.1927,-0.0892 c 0.27032,-0.12507 0.49216,-0.33248 0.62514,-0.58449 l 0.11373,-0.21551 0.011,-9.29232 c 0.0122,-10.38111 0.0382,-9.50953 -0.29385,-9.88667 -0.0948,-0.10775 -0.27008,-0.2474 -0.3894,-0.31033 l -0.21694,-0.11444 h -9.90846 -9.90847 l -0.1927,0.0892 c -0.28172,0.13034 -0.48687,0.32923 -0.62072,0.60178 l -0.11814,0.24056 -0.0111,9.20757 c -0.007,6.03334 0.004,9.28839 0.0315,9.44198 0.0966,0.53238 0.46006,1.04837 0.93397,1.32608 0.4417,0.25884 -0.21665,0.24403 10.31186,0.23193 l 9.60925,-0.0109 0.28558,-0.13527 c 0.15707,-0.0744 0.35583,-0.18872 0.44169,-0.25404 0.23011,-0.17508 0.50267,-0.56875 0.60346,-0.87159 l 0.0885,-0.26602 -0.011,-9.44155 -0.011,-9.44155 -0.13507,-0.27432 c -0.17493,-0.35528 -0.39538,-0.60944 -0.69857,-0.80538 -0.50059,-0.32353 0.39342,-0.2997 -10.72624,-0.28583 l -9.95081,0.0124 -0.28514,0.13506 c -0.15682,0.0743 -0.36286,0.19752 -0.45785,0.27385 -0.23705,0.19048 -0.49021,0.58382 -0.59197,0.91974 -0.084,0.27741 -0.0848,0.37693 -0.0737,9.67994 l 0.0113,9.39964 0.11555,0.3166 c 0.30054,0.82343 1.03844,1.48062 1.85344,1.6507 0.17241,0.036 2.75667,0.0452 9.95082,0.0357 l 9.71791,-0.0129 0.2635,-0.0988 c 0.7326,-0.2746 1.33241,-0.8998 1.59042,-1.65773 l 0.0939,-0.27586 0.0111,-9.34676 c 0.0124,-10.42 0.0336,-9.65839 -0.28688,-10.3084 -0.31194,-0.6327 -0.93341,-1.13351 -1.62754,-1.31158 -0.28396,-0.0729 -0.78667,-0.0766 -10.24942,-0.0766 h -9.95081 l -0.31758,0.0984 c -0.86218,0.26707 -1.53467,0.95921 -1.75543,1.80673 -0.058,0.22252 -0.0654,1.31701 -0.0654,9.67721 0,9.28522 0.001,9.43132 0.0847,9.76122 0.22988,0.90946 0.83918,1.66512 1.67238,2.07414 0.75093,0.36863 -0.30569,0.33547 10.69207,0.33547 9.32476,0 9.77243,-0.003 10.03305,-0.0774 1.02397,-0.2904 1.8171,-0.98878 2.19618,-1.93382 0.22909,-0.5711 0.21836,-0.0707 0.21883,-10.20412 4.3e-4,-9.1026 -0.002,-9.38843 -0.0808,-9.71719 -0.10365,-0.43194 -0.21285,-0.68453 -0.45032,-1.04172 -0.39446,-0.5933 -1.03115,-1.06469 -1.77554,-1.31455 l -0.29641,-0.0995 -10.01432,-0.0117 c -9.05423,-0.0106 -10.04681,-0.005 -10.35308,0.0562 -1.06449,0.21357 -1.93893,0.92214 -2.34669,1.90154 -0.27295,0.65562 -0.26002,0.10745 -0.24634,10.43988 0.0138,10.43661 -0.0116,9.56945 0.3015,10.29359 0.21581,0.49912 0.39207,0.77139 0.74039,1.14367 0.5038,0.53846 1.14459,0.91776 1.89347,1.12078 0.28241,0.0766 0.6454,0.0794 10.2013,0.0794 h 9.90846 l 0.37186,-0.11664 c 1.44152,-0.45217 2.40753,-1.4937 2.73124,-2.94476 0.0675,-0.3026 0.0727,-1.00121 0.0727,-9.78901 0,-8.63984 -0.006,-9.489 -0.0698,-9.76023 -0.36502,-1.55443 -1.51921,-2.70147 -3.02201,-3.00328 -0.30562,-0.0614 -1.31399,-0.0668 -10.50061,-0.0561 l -10.16253,0.0118 -0.29641,0.0951 c -1.34848,0.43261 -2.263,1.34289 -2.67787,2.66546 l -0.11683,0.37246 -0.0112,9.54663 c -0.0124,10.56762 -0.0295,9.87657 0.26379,10.69698 0.5179,1.44892 1.73076,2.50151 3.30432,2.86768 0.37983,0.0884 0.41235,0.0887 9.80261,0.10193 5.89547,0.008 9.61168,-0.002 9.92964,-0.0282 0.86372,-0.0704 1.50231,-0.28316 2.16945,-0.72264 0.84939,-0.55953 1.48605,-1.38367 1.79947,-2.32936 0.2352,-0.70973 0.22312,-0.14321 0.22312,-10.45816 0,-9.08896 -0.004,-9.5651 -0.0774,-9.90706 -0.38798,-1.80066 -1.81734,-3.18764 -3.62769,-3.52013 -0.26401,-0.0485 -2.01739,-0.0583 -10.39542,-0.0583 -9.60194,0 -10.09484,0.004 -10.43777,0.0774 -0.91573,0.19691 -1.58012,0.55609 -2.24558,1.21401 -0.59672,0.58995 -0.91979,1.0998 -1.15569,1.82385 -0.22945,0.70423 -0.21913,0.21277 -0.21913,10.43379 0,8.99345 0.004,9.50404 0.0768,9.86538 0.38293,1.89895 1.64736,3.36868 3.41652,3.97126 0.8265,0.28151 -0.0707,0.25843 10.64949,0.27396 6.96938,0.0101 9.81455,7.2e-4 10.1156,-0.0334 1.08522,-0.12297 2.10892,-0.59812 2.91672,-1.3538 0.841,-0.78673 1.37995,-1.78119 1.57668,-2.90923 0.0547,-0.31365 0.0631,-1.62712 0.0631,-9.81664 0,-6.49747 -0.0142,-9.55664 -0.0454,-9.781 -0.1272,-0.9145 -0.53177,-1.82754 -1.12841,-2.54665 -0.63267,-0.76254 -1.44712,-1.31696 -2.37688,-1.61804 -0.77435,-0.25074 -0.0739,-0.23597 -11.18497,-0.23597 -9.56256,0 -10.24819,0.005 -10.56737,0.0738 -1.90201,0.41104 -3.36004,1.72177 -3.92697,3.53026 -0.23089,0.73655 -0.22016,0.21955 -0.22016,10.6013 v 9.63251 l 0.0984,0.43952 c 0.27993,1.25016 0.82458,2.23372 1.69622,3.06314 0.86159,0.81985 1.92651,1.34774 3.09608,1.53474 0.59077,0.0945 19.66192,0.0973 20.28272,0.003 0.61831,-0.0939 1.1124,-0.25303 1.71493,-0.55234 0.66439,-0.33004 1.01367,-0.583 1.54766,-1.12087 0.83893,-0.84504 1.38127,-1.89887 1.59232,-3.09407 0.0744,-0.42153 0.0782,-0.89815 0.0782,-10.03273 v -9.59017 l -0.098,-0.44458 c -0.27664,-1.2548 -0.76308,-2.16201 -1.61298,-3.00819 -0.81096,-0.8074 -1.67062,-1.28484 -2.84097,-1.5778 l -0.35992,-0.0901 -10.28957,-0.0136 c -11.43655,-0.0151 -10.6654,-0.033 -11.57428,0.26833 -1.97715,0.65547 -3.34459,2.17001 -3.87228,4.28885 l -0.091,0.36538 -0.0131,9.67486 c -0.0116,8.60151 -0.006,9.72542 0.0532,10.13064 0.38639,2.6577 2.38306,4.7934 5.01921,5.36871 0.76407,0.16674 1.06568,0.17107 10.94407,0.15686 10.56471,-0.0152 9.77325,0.005 10.75534,-0.27917 2.2595,-0.65461 3.93997,-2.45481 4.48493,-4.80448 0.15175,-0.65428 0.15673,-1.02531 0.14348,-10.69958 l -0.013,-9.50549 -0.0959,-0.43189 c -0.60282,-2.71408 -2.55557,-4.60968 -5.28166,-5.1271 -0.35281,-0.067 -1.14001,-0.0723 -10.60714,-0.0723 -11.11362,0 -10.47558,-0.0133 -11.37309,0.23679 -2.13267,0.59421 -3.81884,2.27338 -4.44197,4.42351 -0.26885,0.92768 -0.25093,0.22987 -0.26585,10.34949 -0.0141,9.53392 -0.006,10.09105 0.15867,10.88156 0.63337,3.04163 3.13577,5.30145 6.23441,5.63005 0.26974,0.0286 3.72184,0.0433 10.0355,0.0428 10.29279,-8.9e-4 9.99669,0.005 10.88908,-0.20717 0.77899,-0.185 1.60972,-0.55665 2.3048,-1.0311 1.69242,-1.15523 2.79774,-2.96556 3.05659,-5.00616 0.0354,-0.27874 0.0445,-2.99601 0.0339,-10.11943 l -0.0145,-9.73837 -0.0965,-0.4234 c -0.51672,-2.26702 -1.90045,-4.03642 -3.90259,-4.99031 -0.78725,-0.37507 -1.44833,-0.5644 -2.30774,-0.66094 -0.30486,-0.0342 -3.2812,-0.044 -10.62832,-0.035 l -10.20487,0.0126 -0.44461,0.0978 c -1.55573,0.34223 -2.76871,1.01538 -3.8178,2.11869 -1.06876,1.12399 -1.73479,2.58243 -1.89782,4.15578 -0.0593,0.57193 -0.0578,18.9641 0.002,19.51015 0.0999,0.91868 0.34587,1.7665 0.75821,2.61288 1.16014,2.38133 3.41569,3.98137 6.0568,4.29656 0.29276,0.0349 3.12855,0.0437 10.4166,0.0324 11.07221,-0.0173 10.11308,0.007 11.14293,-0.28556 0.5566,-0.15828 0.94384,-0.3163 1.51231,-0.61713 2.10471,-1.11381 3.51406,-3.06874 3.99626,-5.54327 l 0.0908,-0.46575 0.0154,-9.3573 c 0.0161,-9.74505 0.01,-10.15517 -0.16222,-11.00699 -0.49951,-2.4701 -2.17725,-4.55388 -4.48368,-5.56876 -0.53653,-0.23609 -1.23222,-0.44064 -1.86121,-0.54726 -0.52477,-0.0889 -0.54853,-0.0891 -10.77884,-0.0887 -6.76629,4.3e-4 -10.37452,0.0153 -10.61051,0.0441 -2.28527,0.27847 -4.41017,1.64993 -5.64107,3.64087 -0.56755,0.91799 -0.95394,2.04485 -1.08847,3.17444 -0.0348,0.29209 -0.0436,3.0806 -0.0321,10.18295 0.0175,10.79867 -0.008,9.83266 0.28433,10.92676 0.77695,2.9111 3.13492,5.20783 6.09854,5.94018 1.01066,0.24974 0.32609,0.23385 10.77652,0.25016 9.69081,0.0151 10.46118,0.006 11.21556,-0.13873 1.05067,-0.20102 1.94859,-0.53525 2.80376,-1.04364 2.31767,-1.37783 3.8029,-3.71597 4.08013,-6.42314 0.0302,-0.29484 0.0449,-3.52711 0.0449,-9.867 0,-10.11898 0.006,-9.8147 -0.21259,-10.81866 -0.24716,-1.13526 -0.847,-2.39126 -1.59741,-3.34475 -0.32629,-0.41461 -1.06464,-1.1419 -1.47165,-1.44961 -1.1902,-0.89984 -2.50076,-1.44485 -4.02267,-1.67289 -0.55395,-0.083 -20.7703,-0.0847 -21.34131,-0.002 -0.59934,0.087 -0.97975,0.17288 -1.48204,0.3345 -1.48683,0.47841 -2.7629,1.31827 -3.76903,2.48064 -1.06759,1.23336 -1.69944,2.59295 -1.99938,4.30213 -0.0651,0.37085 -0.0726,1.21904 -0.0866,9.70018 -0.0163,9.90468 -0.009,10.32304 0.18369,11.29368 0.78137,3.92667 4.05193,6.87495 8.04255,7.25004 0.30494,0.0287 3.8147,0.0438 10.16379,0.0438 10.4148,4e-5 10.12944,0.005 11.11957,-0.21064 2.6512,-0.57859 4.94467,-2.35709 6.14389,-4.76436 0.50369,-1.01109 0.79718,-1.99648 0.92058,-3.09087 0.0345,-0.30601 0.0437,-3.15312 0.0331,-10.26763 -0.0146,-9.79133 -0.0151,-9.84661 -0.1033,-10.2888 -0.28607,-1.43473 -0.79078,-2.63079 -1.56906,-3.71834 -1.51373,-2.11523 -3.92882,-3.50139 -6.50722,-3.73485 -0.35903,-0.0325 -3.57766,-0.0417 -10.80099,-0.031 -10.26417,0.0153 -10.29068,0.0155 -10.73842,0.10455 -1.59865,0.31787 -2.96297,0.92602 -4.06183,1.81057 -1.84734,1.48705 -2.958942,3.38526 -3.372872,5.75962 -0.0684,0.39254 -0.0749,1.12717 -0.0884,10.07709 -0.0151,10.03172 -0.0138,10.12257 0.16245,11.07775 0.30535,1.65469 1.096432,3.31846 2.131282,4.48247 0.33954,0.38191 1.19621,1.21441 1.44382,1.40308 1.47693,1.12537 3.1562,1.79767 4.95423,1.98345 0.3386,0.035 3.22336,0.0439 10.56481,0.0325 10.02599,-0.0155 10.10238,-0.0162 10.56479,-0.10389 1.04454,-0.19797 1.76944,-0.43691 2.66767,-0.8793 1.08487,-0.53432 1.88452,-1.11816 2.71597,-1.98298 1.43402,-1.49158 2.28736,-3.24762 2.62737,-5.40675 0.0724,-0.45963 0.0767,-1.03503 0.0767,-10.26762 0,-10.32926 0.005,-10.0192 -0.19176,-10.99137 -0.47024,-2.31865 -1.80513,-4.4238 -3.69636,-5.82927 -1.55457,-1.15528 -3.26799,-1.77952 -5.25816,-1.91566 -0.81366,-0.0557 -19.30175,-0.0544 -20.21911,0.001 -1.43817,0.0874 -2.54181,0.37659 -3.78987,0.99291 -1.13877,0.56234 -2.0109,1.23064 -2.97988,2.28343 -1.293722,1.40561 -2.177182,3.42126 -2.377262,5.42378 -0.0328,0.32884 -0.0419,3.36553 -0.0309,10.33113 0.0155,9.78859 0.0163,9.86902 0.10387,10.33114 0.25193,1.32925 0.64643,2.43047 1.246362,3.47907 0.82416,1.44052 2.1777,2.83317 3.59323,3.69703 1.23188,0.7518 2.66279,1.24354 4.21322,1.44793 0.62577,0.0825 20.20236,0.0821 20.85436,-4.7e-4 1.44428,-0.18279 2.81282,-0.63295 3.98745,-1.31159 2.94714,-1.70271 4.8601,-4.69598 5.15906,-8.07255 0.0254,-0.28724 0.0414,-4.13828 0.0414,-9.99398 -1e-5,-9.91847 6e-4,-9.88007 -0.16973,-10.79688 -0.37087,-1.99625 -1.28983,-3.79265 -2.69739,-5.27287 -1.60331,-1.6861 -3.52477,-2.67615 -6.05302,-3.11891 -0.38399,-0.0672 -1.19687,-0.074 -10.57848,-0.0878 -7.15586,-0.0105 -10.34419,-0.001 -10.77652,0.0318 -1.63785,0.12486 -3.14543,0.59873 -4.56758,1.43571 -0.48813,0.28728 -1.26853,0.89447 -1.78908,1.392 -1.735232,1.65849 -2.717802,3.53801 -3.137252,6.00112 l -0.0937,0.55043 -0.0148,9.39964 c -0.0101,6.38568 -4.3e-4,9.63722 0.0307,10.1406 0.0833,1.35624 0.32457,2.42955 0.81359,3.62013 0.26967,0.65652 0.78288,1.61684 1.018252,1.90533 0.038,0.0466 0.21188,0.27522 0.3864,0.50809 0.56369,0.75219 1.24496,1.44619 2.04004,2.07819 1.22703,0.97535 2.8804,1.74233 4.46649,2.07197 1.05027,0.21828 0.38919,0.20519 11.2001,0.22161 7.14784,0.0109 10.17562,0.002 10.52245,-0.0318 1.49153,-0.14414 2.86689,-0.54331 4.10736,-1.19207 2.09924,-1.0979 3.75578,-2.78791 4.78713,-4.88385 0.39524,-0.80324 0.6195,-1.41331 0.82112,-2.23379 0.32097,-1.30615 0.29401,-0.3186 0.31007,-11.35758 0.0105,-7.25301 0.001,-10.0382 -0.0343,-10.39465 -0.0777,-0.77719 -0.27456,-1.70975 -0.5004,-2.37108 -0.57494,-1.68358 -1.44967,-3.09831 -2.67169,-4.32098 -0.87301,-0.87349 -1.78083,-1.52222 -2.90248,-2.07414 -1.11179,-0.54705 -2.00137,-0.8281 -3.31646,-1.04774 -0.36785,-0.0614 -1.47837,-0.07 -10.84757,-0.0837 -7.57544,-0.011 -10.5655,-0.002 -10.90355,0.0328 -2.21306,0.22806 -4.10671,0.99536 -5.80677,2.35287 -1.28111,1.02299 -2.350292,2.3479 -3.048232,3.77731 -0.49186,1.00738 -0.79434,1.98359 -1.01942,3.29009 -0.0673,0.39048 -0.0741,1.18093 -0.0884,10.16178 -0.011,6.95248 -0.002,9.90188 0.0321,10.30996 0.227,2.73196 1.32866,5.15752 3.253032,7.16229 1.80791,1.88344 4.00953,3.01484 6.72002,3.45338 0.43751,0.0708 1.09792,0.0754 10.88237,0.0754 9.83831,0 10.44363,-0.004 10.90355,-0.0765 2.54317,-0.39963 4.66349,-1.43437 6.42345,-3.13473 1.94866,-1.88266 3.05261,-4.04343 3.4964,-6.84348 0.0905,-0.57087 0.0908,-0.60456 0.10605,-10.03595 0.0107,-6.64157 0.001,-9.68265 -0.0319,-10.19931 -0.26512,-4.14012 -2.54103,-7.69101 -6.18309,-9.6469 -1.04866,-0.56316 -2.47364,-1.03017 -3.70987,-1.21584 -0.98683,-0.14821 -1.65974,-0.15617 -11.80916,-0.13984 -10.70659,0.0172 -10.16258,0.007 -11.27554,0.21782 -1.5128,0.28695 -2.95535,0.87724 -4.21545,1.72494 -1.29722,0.87268 -2.280862,1.83811 -3.186312,3.12732 -1.05327,1.49969 -1.60447,2.93369 -1.95298,5.08089 -0.0661,0.40741 -0.0734,1.24799 -0.0874,10.05592 -0.011,6.94471 -0.002,9.7992 0.0333,10.28844 0.0743,1.03639 0.19368,1.68161 0.55012,2.97396 0.15832,0.574 0.64096,1.67518 0.98577,2.2491 0.28132,0.46823 0.82444,1.26731 1.08353,1.59415 1.115582,1.4073 2.580892,2.59527 4.170132,3.38087 1.29418,0.63974 2.49384,1.00028 3.98635,1.19805 0.56327,0.0746 1.09718,0.0786 10.71301,0.0786 10.67961,0 10.35415,0.005 11.45649,-0.19027 3.7252,-0.66124 7.03393,-3.09822 8.71159,-6.41633 0.8039,-1.58997 1.23007,-3.05295 1.36523,-4.68659 0.0229,-0.27675 0.0398,-4.50335 0.0402,-10.0526 6e-4,-8.15148 -0.009,-9.6623 -0.0618,-10.16177 -0.19296,-1.81172 -0.66324,-3.28099 -1.57284,-4.91398 -1.2337,-2.21484 -3.31679,-4.09547 -5.69015,-5.13713 -1.06001,-0.46522 -2.00018,-0.7332 -3.30283,-0.9414 l -0.57164,-0.0914 -10.24722,-0.0146 c -10.65206,-0.0152 -10.94763,-0.0112 -12.01209,0.16243 -2.89946,0.473 -5.52664,1.98064 -7.451592,4.27618 -0.43905,0.52358 -1.16684,1.58626 -1.39251,2.0333 -0.69792,1.38246 -1.13295,2.74693 -1.32851,4.16691 -0.14997,1.0889 -0.15858,1.7751 -0.14079,11.22029 0.0158,8.36956 0.0244,9.32621 0.0885,9.82286 0.20104,1.55603 0.46526,2.50744 1.14407,4.11958 0.15734,0.37368 0.59764,1.13937 1.0155,1.76597 1.20322,1.80428 3.016352,3.38447 5.002952,4.36021 1.27675,0.62708 2.48664,0.99492 4.06502,1.23588 0.48216,0.0736 1.03827,0.0776 10.88237,0.0776 9.63214,0 10.41087,-0.005 10.88618,-0.0737 2.15821,-0.31051 3.90102,-0.96576 5.60676,-2.10798 3.23447,-2.16593 5.30016,-5.65549 5.6762,-9.58877 0.0245,-0.256 0.0402,-4.30351 0.0397,-10.2256 -8.9e-4,-10.37084 0.003,-10.14839 -0.19119,-11.24146 -0.21795,-1.2274 -0.66526,-2.52672 -1.27436,-3.70169 -1.27301,-2.45562 -3.26588,-4.40015 -5.75353,-5.61395 -1.30635,-0.63741 -2.31379,-0.95426 -3.87446,-1.21854 -0.52757,-0.0893 -0.56389,-0.0897 -11.0941,-0.10442 -7.5475,-0.0106 -10.70387,-0.001 -11.05175,0.0324 -2.22055,0.21508 -4.18544,0.90713 -6.00493,2.11497 -3.078292,2.04347 -5.122602,5.27931 -5.658762,8.957 -0.14783,1.01396 -0.1568,1.74681 -0.13922,11.36848 0.0187,10.20895 0.007,9.68527 0.23738,10.94992 0.79394,4.36419 3.77121,8.14225 7.839272,9.94781 1.36214,0.60457 2.78628,0.97617 4.29791,1.12145 0.25757,0.0247 4.37934,0.0405 10.52245,0.0401 10.66495,-5.9e-4 10.45028,0.003 11.55987,-0.18939 5.4642,-0.94715 9.81671,-5.16698 10.96266,-10.62846 0.31057,-1.48015 0.30782,-1.36455 0.29008,-12.19413 -0.017,-10.35019 -0.007,-9.84914 -0.22162,-11.00859 -0.57754,-3.11812 -2.18018,-5.90063 -4.57368,-7.9408 -1.95651,-1.6677 -4.40471,-2.76584 -6.92322,-3.10542 -1.13679,-0.15328 -1.57166,-0.15845 -11.89863,-0.14165 -8.94739,0.0146 -10.20118,0.0244 -10.64948,0.0836 -2.33667,0.30837 -4.32722,1.04764 -6.11869,2.27244 -3.180222,2.17426 -5.299692,5.56851 -5.825892,9.32999 -0.16067,1.14846 -0.1665,1.62061 -0.14205,11.50547 0.0257,10.37718 0.0124,9.78428 0.247,11.05093 0.66395,3.58493 2.71897,6.81508 5.699772,8.95909 1.85322,1.33297 4.08747,2.22676 6.33041,2.53241 1.11904,0.1525 1.54865,0.1577 11.64456,0.14108 10.72465,-0.0177 10.14292,-0.006 11.41415,-0.23684 4.59141,-0.83519 8.5876,-3.98866 10.43394,-8.23361 0.55526,-1.27661 0.89096,-2.45354 1.11261,-3.90069 0.091,-0.59412 0.0912,-0.61275 0.10693,-10.5029 0.0116,-7.27785 0.003,-10.06507 -0.0334,-10.5005 -0.25995,-3.13314 -1.53471,-6.11789 -3.5805,-8.38346 -2.37228,-2.62713 -5.36062,-4.18452 -8.95244,-4.6656 -0.53859,-0.0721 -1.18622,-0.0766 -11.19996,-0.0766 -11.24738,0 -10.89004,-0.006 -12.06801,0.19575 -4.98522,0.85294 -9.204552,4.38606 -10.940922,9.16155 -0.5023,1.38146 -0.76196,2.71008 -0.85228,4.36109 -0.0348,0.63658 -0.0439,3.52315 -0.0318,10.16178 0.0183,10.05685 0.006,9.53176 0.24675,10.9239 0.90543,5.2446 4.57685,9.62768 9.589272,11.44805 0.93298,0.33884 1.87256,0.57445 3.02641,0.75892 l 0.69867,0.1117 10.2684,0.0134 c 11.18843,0.0146 10.86286,0.0205 12.21607,-0.22222 1.68788,-0.30273 3.39836,-0.92674 4.82733,-1.76107 4.00397,-2.33777 6.63126,-6.24103 7.30243,-10.84893 0.16736,-1.14901 0.17909,-2.00226 0.16133,-11.73628 -0.0185,-10.11751 -0.006,-9.57439 -0.24844,-10.94381 -0.35642,-2.0143 -1.17231,-4.02383 -2.32988,-5.73843 -1.45921,-2.1614 -3.41027,-3.85676 -5.77466,-5.01786 -1.4578,-0.7159 -2.80333,-1.13084 -4.55868,-1.40586 l -0.60727,-0.0951 -10.64948,-0.0145 c -7.69046,-0.0104 -10.79068,-0.001 -11.15762,0.0334 -3.51188,0.33067 -6.60166,1.74083 -9.099812,4.15314 -2.38529,2.30331 -3.92539,5.32132 -4.38455,8.59203 -0.17276,1.23063 -0.17865,1.65404 -0.16159,11.62252 0.0178,10.39585 0.006,9.84183 0.24785,11.19912 1.18936,6.66169 6.499912,11.77336 13.194942,12.70081 1.20297,0.16664 2.06679,0.17806 12.08062,0.15965 10.39262,-0.0191 9.8246,-0.007 11.19996,-0.24532 5.48819,-0.95238 10.03994,-4.76852 11.94097,-10.01118 0.5109,-1.40896 0.79724,-2.78091 0.91022,-4.3611 0.035,-0.48992 0.0437,-3.37319 0.0312,-10.41581 -0.0186,-10.54125 -0.006,-9.95167 -0.24308,-11.26882 -0.66159,-3.67392 -2.57226,-6.93196 -5.46207,-9.3138 -2.15927,-1.77972 -4.83759,-2.95293 -7.66424,-3.35724 -1.22795,-0.17564 -1.64058,-0.18115 -12.25856,-0.16382 -11.059,0.018 -10.40897,0.004 -11.79149,0.24905 -3.8689,0.68486 -7.370312,2.84309 -9.726282,5.99513 -1.55517,2.08066 -2.55797,4.49336 -2.93545,7.06261 -0.20507,1.39576 -0.21209,1.7661 -0.21191,11.17378 0,9.00132 0.0135,9.87513 0.16881,11.09744 0.61172,4.81321 3.31547,9.07466 7.410582,11.68001 2.25675,1.43577 4.82898,2.27516 7.60312,2.48111 0.52786,0.0392 19.4633,0.0532 20.365,0.0151 z m -51.892422,-1.38929 v -0.86798 h -4.1497 -4.1497 v 0.86798 0.86799 h 4.1497 4.1497 z m 0,-3.98003 v -0.86798 h -4.1497 -4.1497 v 0.86798 0.86799 h 4.1497 4.1497 z m 0,-5.25025 v -0.86798 h -4.1497 -4.1497 v 0.86798 0.86799 h 4.1497 4.1497 z m -0.0423,-3.98002 v -0.86799 h -4.1497 -4.1497 v 0.86799 0.86798 h 4.1497 4.1497 z m 12.07795,-2.97508 1.55678,-1.55666 v -0.93459 c 0,-0.51402 0.0125,-1.39153 0.0277,-1.95002 l 0.0277,-1.01545 0.11958,-0.0686 c 0.27625,-0.15853 0.37793,-0.58634 0.20627,-0.86785 -0.24937,-0.40897 -0.85203,-0.40897 -1.1014,0 -0.17375,0.28495 -0.0694,0.71094 0.21331,0.87084 l 0.12663,0.0716 -0.0264,1.86299 -0.0264,1.863 -1.42413,1.42899 -1.42414,1.429 h -2.43461 -2.43461 l -3.02867,-3.02736 -3.02867,-3.02736 h -2.47084 -2.47084 l -0.14468,-0.12702 c -0.37254,-0.32708 -0.93036,0.0219 -0.77713,0.48621 0.10763,0.32608 0.51059,0.42525 0.77713,0.19124 l 0.14468,-0.12702 h 2.38645 2.38644 l 3.02867,3.02736 3.02868,3.02736 h 2.60281 2.60282 z m -14.06815,-0.26399 v -0.88916 h -0.82571 -0.8257 v 0.88916 0.88916 h 0.8257 0.82571 z m -2.87939,0 v -0.88916 h -0.8257 -0.82571 v 0.33873 0.33873 h -0.83066 -0.83066 l -0.16142,-0.16632 c -0.52272,-0.53859 -1.37824,0.10254 -1.0103,0.75713 0.24664,0.43883 0.88177,0.42512 1.12379,-0.0242 l 0.0771,-0.14316 h 0.81608 0.81607 v 0.33873 0.33873 h 0.82571 0.8257 z m -3.78238,-7.89316 c 0.3774,-0.16879 0.36863,-0.69583 -0.0143,-0.85579 -0.0817,-0.0341 -0.18434,-0.0564 -0.22817,-0.0494 -0.0519,0.008 -0.18375,-0.0905 -0.37753,-0.28261 l -0.29784,-0.29525 v -5.6953 -5.6953 l 0.47097,-0.47227 c 0.46125,-0.46252 0.4743,-0.47183 0.63225,-0.45064 0.24662,0.0331 0.52025,-0.11599 0.63034,-0.34338 0.15208,-0.31414 0.086,-0.60359 -0.18485,-0.8102 -0.12425,-0.0948 -0.19808,-0.11748 -0.38181,-0.11748 -0.24181,0 -0.36509,0.0658 -0.5403,0.28858 -0.0993,0.12618 -0.12552,0.53788 -0.0398,0.62362 0.0364,0.0364 -0.0835,0.18181 -0.48091,0.5834 l -0.52935,0.53496 v 5.85514 5.85514 l 0.34393,0.35234 c 0.29684,0.30409 0.34024,0.36712 0.31687,0.46022 -0.0152,0.0605 -4.3e-4,0.17164 0.0336,0.25313 0.10615,0.25402 0.39862,0.37207 0.64681,0.26108 z m 0.51536,-3.56924 c 0.0546,-0.0104 0.17848,-0.10069 0.27524,-0.20068 0.0967,-0.1 0.21498,-0.19376 0.26272,-0.20839 0.0477,-0.0146 0.34786,-0.29004 0.66692,-0.61201 l 0.58011,-0.58542 v -7.41011 -7.41012 l 0.16356,-0.049 c 0.31578,-0.0946 0.51444,-0.42137 0.45354,-0.74599 -0.0391,-0.20819 -0.29949,-0.46725 -0.50292,-0.50026 -0.21238,-0.0345 -0.42635,0.0339 -0.57671,0.18424 -0.23215,0.23213 -0.25678,0.56687 -0.0611,0.83015 l 0.10018,0.13478 v 7.40259 7.40259 l -0.46787,0.46503 c -0.42886,0.42625 -0.47181,0.45811 -0.51516,0.38211 -0.15277,-0.26782 -0.46763,-0.4003 -0.75468,-0.31753 -0.18806,0.0542 -0.2631,0.11348 -0.37397,0.29534 -0.29839,0.48945 0.15264,1.05625 0.75013,0.94268 z m 18.32008,-2.5391 c 0.11603,-0.0323 0.2798,-0.1662 0.3695,-0.30219 0.16401,-0.24867 0.0575,-0.6952 -0.20444,-0.85707 l -0.1437,-0.0888 v -1.91392 -1.91392 l 0.12393,-0.0732 c 0.20774,-0.12271 0.31257,-0.33743 0.29111,-0.59626 -0.0304,-0.36639 -0.26987,-0.59296 -0.62676,-0.59296 -0.35688,0 -0.59636,0.22657 -0.62675,0.59296 -0.0215,0.25883 0.0834,0.47355 0.29111,0.59626 l 0.12392,0.0732 v 1.91392 1.91392 l -0.14369,0.0888 c -0.26194,0.16187 -0.36845,0.6084 -0.20444,0.85707 0.16245,0.2463 0.48455,0.37604 0.75021,0.30219 z m -18.32079,-0.0436 c 0.14146,-0.0269 0.42938,-0.33806 0.43708,-0.47229 0.0279,-0.48612 -0.201,-0.77679 -0.61612,-0.78245 -0.26661,-0.004 -0.4504,0.097 -0.5719,0.31318 -0.28475,0.5066 0.153,1.05548 0.75094,0.94156 z m 3.46657,-0.68761 c 0.0744,-0.0454 0.16712,-0.13104 0.206,-0.19038 l 0.0707,-0.10787 3.11799,-4.2e-4 3.11799,-4.2e-4 0.69867,-0.69647 c 0.38427,-0.38305 0.69868,-0.72115 0.69868,-0.75133 0,-0.0302 0.0498,-0.0767 0.1106,-0.10328 0.25469,-0.11152 0.40683,-0.4235 0.35118,-0.72014 -0.0379,-0.20192 -0.29396,-0.45959 -0.48693,-0.48997 -0.25335,-0.0399 -0.42099,0.011 -0.58867,0.17867 -0.26398,0.26396 -0.26922,0.60825 -0.0134,0.87948 l 0.14423,0.15293 -0.56245,0.56357 -0.56245,0.56357 -2.98584,-5.1e-4 -2.98583,-5.1e-4 -0.0966,-0.14909 c -0.19113,-0.29501 -0.52916,-0.39436 -0.83998,-0.24687 -0.43429,0.20606 -0.46715,0.82731 -0.0585,1.10622 0.17882,0.12205 0.47575,0.12762 0.66464,0.0125 z m -3.46651,-1.76816 c 0.1479,-0.0282 0.42945,-0.32915 0.43702,-0.46717 0.0273,-0.49733 -0.19847,-0.7817 -0.62545,-0.78787 -0.25459,-0.004 -0.39504,0.0755 -0.55975,0.31542 -0.0802,0.11678 -0.0958,0.18524 -0.0818,0.35896 0.0208,0.2599 0.12269,0.41156 0.35304,0.52569 0.16661,0.0826 0.26979,0.0944 0.47698,0.055 z m 3.05595,-2.55039 c 0.16685,-0.0366 0.36313,-0.17193 0.44127,-0.30419 l 0.0717,-0.12128 h 3.82257 3.82257 l 0.0543,0.10142 c 0.10358,0.19354 0.29873,0.29883 0.55284,0.29828 0.26939,-5.9e-4 0.4191,-0.0813 0.55325,-0.29835 0.17399,-0.2815 0.0767,-0.71899 -0.19188,-0.86271 l -0.10731,-0.0574 v -0.63825 -0.63826 l 1.14914,-1.14963 1.14914,-1.14962 0.13828,0.13828 c 0.39118,0.39114 1.07798,0.11387 1.07798,-0.43521 0,-0.2216 -0.0469,-0.34046 -0.19124,-0.48457 -0.24774,-0.24738 -0.65297,-0.23892 -0.90505,0.0189 -0.0724,0.0741 -0.13168,0.14625 -0.13168,0.16039 0,0.0141 -0.60975,0.63459 -1.35501,1.37877 l -1.355,1.35306 v 0.69943 0.69943 l -0.14387,0.0775 c -0.0791,0.0426 -0.17873,0.14221 -0.22135,0.22133 l -0.0775,0.14386 h -3.8154 -3.81541 l -0.13324,-0.16579 c -0.38588,-0.48014 -1.15146,-0.22484 -1.15118,0.38389 0,0.3854 0.39421,0.71152 0.76212,0.63078 z m -3.05595,-0.11707 c 0.1479,-0.0282 0.42945,-0.32915 0.43702,-0.46718 0.0272,-0.49623 -0.21452,-0.789 -0.65144,-0.789 -0.21832,0 -0.36245,0.0799 -0.51679,0.28663 -0.12039,0.16125 -0.12182,0.55043 -0.003,0.71346 0.15559,0.21279 0.44002,0.31205 0.73382,0.25609 z"
       id="path1388" />
  </g>
</svg>
