<?xml version="1.0" encoding="UTF-8" standalone="no"?>
<!-- Created with Inkscape (http://www.inkscape.org/) -->

<svg
   width="210mm"
   height="297mm"
   viewBox="0 0 210 297"
   version="1.1"
   id="svg5"
   inkscape:version="1.1.2 (b8e25be833, 2022-02-05)"
   sodipodi:docname="top.svg"
   xmlns:inkscape="http://www.inkscape.org/namespaces/inkscape"
   xmlns:sodipodi="http://sodipodi.sourceforge.net/DTD/sodipodi-0.dtd"
   xmlns="http://www.w3.org/2000/svg"
   xmlns:svg="http://www.w3.org/2000/svg">
  <sodipodi:namedview
     id="namedview7"
     pagecolor="#ffffff"
     bordercolor="#666666"
     borderopacity="1.0"
     inkscape:pageshadow="2"
     inkscape:pageopacity="0.0"
     inkscape:pagecheckerboard="0"
     inkscape:document-units="mm"
     showgrid="false"
     inkscape:zoom="0.7500982"
     inkscape:cx="536.59641"
     inkscape:cy="450.60767"
     inkscape:window-width="1920"
     inkscape:window-height="1046"
     inkscape:window-x="-11"
     inkscape:window-y="-11"
     inkscape:window-maximized="1"
     inkscape:current-layer="layer1" />
  <defs
     id="defs2">
    <clipPath
       clipPathUnits="userSpaceOnUse"
       id="clipPath25">
      <path
         d="M 66.668,74.9922 H 4885.68 V 6950 H 66.668 Z"
         id="path23" />
    </clipPath>
    <clipPath
       clipPathUnits="userSpaceOnUse"
       id="clipPath157">
      <path
         d="M 66.668,74.9922 H 4885.68 V 6950 H 66.668 Z"
         id="path155" />
    </clipPath>
  </defs>
  <g
     inkscape:label="Calque 1"
     inkscape:groupmode="layer"
     id="layer1">
    <path
       style="fill:#ff0000;stroke-width:0.0423423;stroke:#ff0000"
       d="m 86.193088,175.71766 -19.626386,-0.0212 v -25.93369 -25.93369 l 26.718985,0.0115 c 14.695443,0.006 32.363953,0.0232 39.263353,0.0375 l 12.54438,0.026 v 25.92798 25.92797 l -19.63697,-0.0105 c -10.80034,-0.006 -28.46885,-0.0201 -39.263362,-0.0318 z m 58.730952,-25.88617 v -25.75908 l -13.01015,-0.0258 c -7.15559,-0.0142 -24.75264,-0.0337 -39.104572,-0.0435 l -26.094412,-0.0178 v 25.7814 25.7814 l 19.573456,0.0107 c 10.7654,0.006 28.362458,0.0154 39.104568,0.0212 l 19.53111,0.0105 z m -37.43198,25.29319 c -7.45893,-0.81018 -13.338747,-6.52611 -14.351126,-13.95112 -0.159827,-1.17222 -0.172272,-2.00495 -0.172551,-11.54844 l -2.75e-4,-9.26203 h -1.270317 -1.270316 v 0.40224 0.40223 h -0.910393 -0.910393 v -0.29638 -0.29639 h -1.990162 -1.990163 v 0.25405 0.25404 h -0.508126 -0.508127 v -0.71979 -0.71979 h 0.508127 0.508126 v 0.23287 0.23288 h 1.990163 1.990162 v -0.29639 -0.29638 h 0.910393 0.910393 v 0.25404 0.25404 h 1.270316 1.270317 v -3.00042 -3.00042 l -0.990508,-0.95844 -0.990508,-0.95843 h -5.382245 c -5.354015,0 -5.382245,4.2e-4 -5.382245,0.0847 0,0.0825 -0.02823,0.0847 -1.122113,0.0847 h -1.122113 v -0.31755 -0.31756 h 1.122113 c 0.969205,0 1.122113,0.009 1.122113,0.0635 0,0.0561 0.636301,0.0635 5.47264,0.0635 h 5.472641 l 1.069488,1.06879 1.069488,1.0688 v 12.76603 c 0,8.23804 0.01545,12.9763 0.04325,13.35882 0.166716,2.2939 0.776197,4.431 1.828815,6.4126 2.270406,4.27413 6.436086,7.31852 11.183636,8.1733 1.34421,0.24202 0.58749,0.22665 11.99053,0.24364 7.16308,0.0107 10.69307,0.001 11.10463,-0.0294 4.83131,-0.3608 9.16506,-2.83011 11.93229,-6.79884 1.25151,-1.79491 2.1669,-4.02036 2.55968,-6.22298 0.23801,-1.33474 0.22467,-0.71258 0.24296,-11.32615 0.0175,-10.16291 0.0128,-10.51191 -0.15783,-11.71637 -0.18196,-1.28439 -0.63158,-2.92084 -1.07355,-3.90735 -0.0365,-0.0815 -0.12695,-0.2911 -0.20097,-0.46575 -0.30716,-0.72485 -1.01406,-1.92861 -1.60567,-2.73429 -2.21025,-3.00996 -5.3749,-5.1341 -9.01562,-6.05133 -0.59094,-0.14888 -1.19327,-0.25773 -2.0355,-0.36785 -0.69442,-0.0908 -0.7576,-0.0915 -10.37425,-0.10862 -10.10804,-0.0181 -10.83508,-0.008 -12.02566,0.16156 -5.76266,0.82209 -10.502578,4.55643 -12.652792,9.96851 -0.473303,1.19131 -0.78945,2.46927 -0.989834,4.0012 -0.09076,0.6938 -0.09151,0.76346 -0.108697,10.09826 -0.01802,9.7849 -0.0081,10.51417 0.15851,11.70721 0.701198,5.01966 3.802272,9.31721 8.363343,11.59012 1.16651,0.5813 2.69792,1.08239 4.06421,1.32981 1.27407,0.23072 0.66131,0.21838 11.75123,0.23659 10.66844,0.0175 11.04507,0.0126 12.21621,-0.15864 4.66651,-0.68242 8.71609,-3.44567 11.07502,-7.55709 0.79596,-1.3873 1.43335,-3.17176 1.73167,-4.84802 0.23897,-1.34284 0.22664,-0.78535 0.24581,-11.11444 0.0185,-9.9561 0.0116,-10.45278 -0.16258,-11.66487 -0.66648,-4.63914 -3.34145,-8.62771 -7.37981,-11.00382 -1.79705,-1.05736 -3.90548,-1.75148 -6.08175,-2.00219 -0.39151,-0.0451 -2.53295,-0.0561 -10.92472,-0.0561 h -10.43777 l -0.6775,0.0982 c -4.06643,0.58918 -7.50208,2.53676 -9.984935,5.66018 -1.545217,1.94388 -2.615963,4.3209 -3.05163,6.77452 -0.225249,1.26854 -0.217072,0.82685 -0.217072,11.72838 v 10.16177 l 0.09762,0.65318 c 0.171107,1.14482 0.391808,2.04616 0.736851,3.00929 1.760074,4.91289 6.034896,8.52548 11.170016,9.43961 1.34277,0.23904 0.75775,0.22646 11.41167,0.24537 10.24077,0.0182 11.11932,0.007 12.28991,-0.15845 1.56741,-0.22132 2.96155,-0.65105 4.39358,-1.35429 4.21576,-2.07027 7.11487,-5.92222 7.93525,-10.54332 0.22698,-1.27853 0.22113,-0.94098 0.20497,-11.83423 -0.0149,-10.06052 -0.0151,-10.07804 -0.10578,-10.6529 -0.23672,-1.50066 -0.57978,-2.69063 -1.15233,-3.99699 -1.20012,-2.73828 -3.36435,-5.13372 -6.01406,-6.65654 -1.71888,-0.98786 -3.52117,-1.5839 -5.63174,-1.86249 -0.47569,-0.0628 -1.53279,-0.0715 -10.43776,-0.0864 -10.09358,-0.0168 -10.65957,-0.01 -11.70809,0.14154 -4.80758,0.69471 -8.87815,3.63865 -11.064889,8.00242 -0.550745,1.09905 -1.046859,2.61575 -1.276253,3.90171 -0.217215,1.21771 -0.20618,0.67386 -0.224003,11.04027 -0.01693,9.84788 -0.0098,10.41671 0.142661,11.45316 0.875671,5.9511 5.450134,10.6708 11.363894,11.72468 1.26527,0.22548 0.95443,0.2203 12.32206,0.20506 l 10.52246,-0.0141 0.57164,-0.0916 c 0.77121,-0.12358 1.32668,-0.24091 1.8843,-0.39802 5.18801,-1.46172 9.04974,-5.7252 9.96581,-11.0026 0.20186,-1.16292 0.19672,-0.86383 0.19672,-11.45317 0,-9.39846 -0.005,-10.02638 -0.0765,-10.56401 -0.44484,-3.32231 -1.80504,-6.083 -4.10004,-8.32153 -2.01044,-1.96097 -4.517,-3.25802 -7.24555,-3.7493 -1.2858,-0.23151 -0.76743,-0.22031 -11.06248,-0.23912 -9.92912,-0.0181 -10.72926,-0.007 -11.85902,0.15857 -3.91874,0.57583 -7.27153,2.66296 -9.555677,5.94847 -1.052473,1.51387 -1.853137,3.47234 -2.198011,5.37646 -0.227806,1.25778 -0.216991,0.7657 -0.236351,10.75535 -0.0183,9.44463 -0.0057,10.47799 0.139718,11.49177 0.628862,4.38297 3.30342,8.0961 7.262591,10.08276 1.03376,0.51872 2.3629,0.96107 3.48953,1.16132 1.22565,0.21786 0.5867,0.20552 11.5387,0.22287 10.55159,0.0167 10.8632,0.0126 11.98332,-0.1575 3.70325,-0.56245 6.97776,-2.64289 9.06173,-5.75731 0.98157,-1.46692 1.69863,-3.24698 2.0091,-4.98747 0.21591,-1.2104 0.20538,-0.70095 0.22395,-10.82856 0.0176,-9.61214 0.009,-10.29416 -0.14027,-11.36517 -0.5608,-4.01838 -2.89678,-7.52265 -6.39684,-9.5961 -1.69912,-1.00657 -3.65206,-1.62335 -5.68923,-1.7968 -0.41713,-0.0355 -3.30719,-0.0444 -10.69183,-0.033 l -10.12019,0.0157 -0.55758,0.0924 c -3.08919,0.51204 -5.49208,1.7211 -7.59293,3.82054 -1.877634,1.87637 -3.23224,4.49828 -3.661306,7.08665 -0.194456,1.17307 -0.191762,1.01603 -0.191779,11.18298 -9e-6,6.36817 0.015,9.78279 0.04449,10.11944 0.269222,3.07363 1.672443,5.97995 3.902115,8.08196 1.79528,1.69249 4.00533,2.81418 6.43121,3.26411 1.15553,0.21431 0.66491,0.20448 11.11082,0.2226 9.87144,0.0171 11.05841,0.004 12.01807,-0.13721 1.34809,-0.19776 2.51543,-0.55412 3.73385,-1.13985 4.01191,-1.92863 6.66656,-5.76466 7.09282,-10.24927 0.0351,-0.36937 0.044,-3.21883 0.0327,-10.43699 -0.0155,-9.85679 -0.0162,-9.93275 -0.10459,-10.45816 -0.5051,-3.00352 -1.78898,-5.47566 -3.83224,-7.37902 -2.07511,-1.93303 -4.499,-3.0469 -7.35956,-3.38199 -0.39538,-0.0463 -2.39408,-0.057 -10.62831,-0.057 h -10.14136 l -0.63516,0.0936 c -1.55887,0.22982 -2.80332,0.61818 -4.11635,1.28461 -2.96268,1.5037 -5.229463,4.15024 -6.272003,7.32276 -0.178162,0.54216 -0.412802,1.53103 -0.49229,2.0747 -0.145493,0.99515 -0.154521,1.7281 -0.139481,11.32614 0.01383,8.82196 0.02012,9.51981 0.0901,9.99241 0.213587,1.44251 0.547774,2.53808 1.149476,3.76833 1.399346,2.86113 3.876248,5.03749 6.922338,6.08241 0.80153,0.27496 1.89942,0.50193 2.83704,0.58653 0.38127,0.0344 3.4307,0.0435 10.90355,0.0324 10.34643,-0.0154 10.37566,-0.0156 10.90354,-0.10532 1.43104,-0.24314 2.44597,-0.558 3.57531,-1.10918 2.39723,-1.16998 4.40991,-3.1859 5.49773,-5.50656 0.7043,-1.50249 1.05885,-2.83817 1.17487,-4.42602 0.0323,-0.44157 0.0422,-3.55761 0.0326,-10.22528 -0.0129,-8.95213 -0.0189,-9.62398 -0.0896,-10.09826 -0.21202,-1.42253 -0.53431,-2.48771 -1.12949,-3.733 -1.60953,-3.36767 -4.87114,-5.84734 -8.57443,-6.51882 -1.14401,-0.20743 -0.6668,-0.19781 -10.713,-0.21596 -10.84671,-0.0196 -10.98872,-0.0164 -12.44183,0.28317 -2.75494,0.5679 -5.35765,2.23186 -7.07607,4.52387 -1.333321,1.77837 -2.097429,3.74059 -2.360973,6.06297 -0.04385,0.38647 -0.05525,2.47417 -0.05525,10.11943 0,9.03887 0.0047,9.6702 0.07658,10.24394 0.308755,2.46519 1.279086,4.58898 2.916673,6.38379 1.69764,1.86064 3.94929,3.08538 6.47541,3.5222 0.99821,0.1726 1.52535,0.17983 11.95734,0.16391 10.88887,-0.0166 10.21594,-0.002 11.36933,-0.24713 3.98478,-0.84689 7.24019,-3.77108 8.43985,-7.58114 0.33653,-1.06877 0.47134,-1.82909 0.53967,-3.04358 0.0646,-1.14744 0.0296,-19.16027 -0.0382,-19.6461 -0.20342,-1.45913 -0.5145,-2.55865 -1.0294,-3.6385 -1.11533,-2.33907 -2.90233,-4.15098 -5.22312,-5.29592 -0.99269,-0.48973 -1.73629,-0.74695 -2.7579,-0.95398 -1.19273,-0.24172 -0.8001,-0.23437 -11.76605,-0.22017 l -10.07784,0.013 -0.55047,0.0938 c -2.00093,0.34103 -3.5961,1.01059 -5.12361,2.1506 -2.27424,1.69732 -3.864188,4.25538 -4.366611,7.02546 -0.185898,1.02493 -0.183739,0.8958 -0.183108,10.94507 4.24e-4,5.53041 0.01715,9.73137 0.03993,9.98403 0.310948,3.44878 2.241919,6.51119 5.214689,8.27023 1.10505,0.65388 2.29481,1.09292 3.63535,1.3415 l 0.61398,0.11385 h 10.67066 c 11.34462,0 10.84506,0.008 11.83511,-0.19757 1.59526,-0.33179 3.24328,-1.11276 4.50962,-2.13704 0.48143,-0.38941 1.20162,-1.11014 1.59013,-1.59133 1.17116,-1.45054 1.87439,-2.99903 2.25511,-4.96561 0.0901,-0.46554 0.0902,-0.47008 0.1045,-10.2888 0.01,-6.7527 0,-10.01379 -0.0313,-10.43329 -0.14911,-1.99237 -0.98025,-4.04676 -2.314,-5.71969 -0.55541,-0.69664 -1.53481,-1.59948 -2.28273,-2.10428 -1.45057,-0.97914 -3.04559,-1.5709 -4.84737,-1.79843 -0.35816,-0.0452 -2.39999,-0.0562 -10.50128,-0.0562 h -10.05667 l -0.59281,0.0951 c -2.40558,0.38583 -4.42869,1.39965 -6.05694,3.03522 -1.70282,1.71048 -2.719157,3.78998 -3.074435,6.29051 -0.06915,0.48666 -0.105267,18.99648 -0.0388,19.88309 0.213138,2.84311 1.531265,5.37287 3.728985,7.15669 1.13108,0.91806 2.6729,1.65387 4.1497,1.98036 1.12775,0.24934 0.67719,0.24082 11.96214,0.22619 11.4522,-0.0148 10.48627,0.009 11.70042,-0.28891 1.75738,-0.43123 3.37333,-1.33903 4.66641,-2.62149 1.63538,-1.62194 2.66945,-3.77038 2.9185,-6.06364 0.0599,-0.55178 0.0615,-19.50015 0.002,-20.03942 -0.52871,-4.76517 -4.21548,-8.45116 -8.9551,-8.95321 -0.34566,-0.0366 -3.0701,-0.0451 -10.56479,-0.0328 -10.93047,0.0179 -10.15043,0.002 -11.19996,0.23508 -3.55302,0.79063 -6.51021,3.64748 -7.43426,7.182 -0.355827,1.36104 -0.335837,0.67249 -0.335837,11.56814 0,10.29122 -0.0044,10.04801 0.196107,10.95944 0.67361,3.06262 2.82842,5.60367 5.7254,6.75162 0.91484,0.36252 1.84098,0.56589 2.90719,0.63837 0.46818,0.0318 3.74533,0.0414 10.60714,0.0311 10.72282,-0.0162 9.99669,-0.002 11.05341,-0.22333 1.39948,-0.29375 2.76782,-0.95548 3.9597,-1.91489 1.61221,-1.29778 2.81185,-3.264 3.23607,-5.304 0.21661,-1.04167 0.21239,-0.82472 0.21189,-10.88156 -4.2e-4,-6.13251 -0.0156,-9.547 -0.0444,-9.86539 -0.15641,-1.73385 -0.8147,-3.42284 -1.89773,-4.86909 -0.32234,-0.43044 -1.13026,-1.25731 -1.57074,-1.6076 -1.30396,-1.03692 -2.85724,-1.71504 -4.53163,-1.97838 -0.45978,-0.0723 -1.05045,-0.0766 -10.58596,-0.0766 -10.67343,0 -10.27467,-0.007 -11.19996,0.19138 -2.83398,0.60703 -5.22174,2.48348 -6.47881,5.09145 -0.43134,0.89488 -0.69985,1.75582 -0.85478,2.74074 -0.0723,0.45945 -0.0766,1.03993 -0.0766,10.28879 0,10.63355 -0.0123,10.06348 0.23911,11.09327 0.87061,3.56633 3.90325,6.21776 7.55621,6.60637 0.28591,0.0304 3.71454,0.04 10.77247,0.0302 11.31976,-0.0158 10.42863,0.003 11.41168,-0.24646 1.23938,-0.3151 2.48198,-0.94714 3.44417,-1.75188 1.73072,-1.4475 2.81364,-3.43129 3.09818,-5.67556 0.0279,-0.22028 0.0429,-3.73985 0.0428,-10.06486 0,-8.54866 -0.008,-9.77887 -0.0654,-10.16177 -0.55493,-3.70038 -3.29868,-6.60228 -6.93651,-7.3363 -0.9527,-0.19224 -1.2864,-0.19754 -11.4395,-0.1817 -8.8602,0.0138 -9.60111,0.0204 -9.99315,0.0886 -1.01992,0.17737 -1.75393,0.40791 -2.58298,0.81125 -2.80986,1.36704 -4.64239,4.07271 -4.8885,7.21775 -0.0592,0.75692 -0.0609,18.54455 -0.002,19.21205 0.0894,1.00985 0.35681,1.99786 0.77699,2.87076 1.22221,2.53908 3.635,4.23229 6.48462,4.55069 0.53572,0.0599 20.09873,0.0588 20.69108,-0.001 2.27272,-0.22989 4.3346,-1.38095 5.68527,-3.17386 0.73265,-0.97253 1.21103,-2.03047 1.49321,-3.30225 l 0.11743,-0.52926 0.0146,-9.7172 c 0.0108,-7.17314 0.002,-9.83359 -0.0345,-10.16177 -0.12864,-1.16469 -0.52811,-2.33534 -1.13819,-3.33549 -0.80715,-1.32323 -2.12394,-2.49692 -3.50992,-3.12848 -0.49836,-0.2271 -1.22196,-0.46367 -1.817,-0.59406 l -0.54181,-0.11873 -10.03549,-0.0114 c -10.92529,-0.0124 -10.46912,-0.0212 -11.41935,0.22194 -1.49395,0.38231 -2.71359,1.07782 -3.78211,2.15679 -1.15278,1.16407 -1.85653,2.47712 -2.21435,4.13153 l -0.11456,0.52966 -0.0119,9.78071 c -0.0105,8.64269 -0.004,9.83304 0.0536,10.23044 0.23073,1.58514 0.90644,2.97103 2.00532,4.11286 1.30053,1.35138 2.9558,2.12864 4.8463,2.27566 0.71846,0.0559 19.59082,0.0547 20.22311,-0.001 3.39507,-0.30048 6.13918,-2.78366 6.73657,-6.09601 0.0872,-0.48363 0.0878,-0.5531 0.0869,-10.2929 -0.001,-10.67499 0.0128,-10.0315 -0.23447,-10.94097 -0.69564,-2.55906 -2.76533,-4.59366 -5.3354,-5.24496 -0.97556,-0.24721 -0.55621,-0.23816 -11.03404,-0.23816 -6.47947,0 -9.74555,0.0146 -10.02275,0.0449 -1.41639,0.1545 -2.80075,0.71245 -3.86221,1.55662 -0.31296,0.2489 -0.92598,0.85604 -1.16661,1.15541 -0.64948,0.80807 -1.17397,1.84094 -1.41664,2.78975 -0.24365,0.95267 -0.2255,0.16567 -0.24264,10.52167 -0.0114,6.88908 -0.002,9.65926 0.0322,10.00556 0.31025,3.09844 2.68447,5.58115 5.77626,6.0402 0.64711,0.0961 20.42407,0.0984 21.05847,0.002 2.67955,-0.40518 4.89018,-2.34398 5.57725,-4.89148 0.2471,-0.9162 0.23417,-0.31997 0.23428,-10.80262 0,-9.38253 -0.002,-9.65115 -0.083,-10.12412 -0.3699,-2.16352 -1.76478,-4.01136 -3.74793,-4.96502 -0.79738,-0.38344 -1.53336,-0.5797 -2.45729,-0.6553 -0.69688,-0.057 -18.84852,-0.0567 -19.49299,4.2e-4 -3.36696,0.298 -5.95216,2.89406 -6.23086,6.25704 -0.0578,0.69729 -0.0563,18.38474 0.002,18.99829 0.13819,1.46445 0.75719,2.77812 1.79557,3.81066 0.86095,0.85611 1.9229,1.42364 3.1484,1.68256 l 0.45319,0.0957 h 10.24722 c 9.84023,0 10.26404,-0.003 10.67066,-0.0794 1.13789,-0.21331 2.19371,-0.73068 3.0105,-1.47518 0.99237,-0.90454 1.5725,-1.88949 1.9149,-3.25111 l 0.1118,-0.44458 0.0122,-9.67485 c 0.0119,-9.43453 0.0101,-9.68696 -0.0706,-10.16202 -0.42258,-2.4879 -2.27354,-4.42978 -4.76847,-5.00271 l -0.42203,-0.0969 -9.92964,-0.0124 c -9.69569,-0.0121 -9.94111,-0.0104 -10.41659,0.0705 -1.88578,0.32113 -3.47829,1.45752 -4.39524,3.13638 -0.23152,0.42388 -0.45871,1.02248 -0.59437,1.56601 l -0.11111,0.44518 -0.0122,9.67319 c -0.0133,10.5689 -0.026,9.96108 0.22674,10.79437 0.4321,1.42436 1.48748,2.65702 2.83246,3.30824 0.4894,0.23697 0.80606,0.34486 1.39735,0.47612 l 0.42343,0.094 h 10.12019 c 9.41686,0 10.14707,-0.005 10.50703,-0.0733 1.16374,-0.22038 2.16381,-0.73894 2.95947,-1.53454 0.75904,-0.75898 1.2787,-1.71598 1.50808,-2.77727 l 0.0955,-0.44177 0.009,-9.44198 c 0.009,-10.19597 0.0148,-9.91478 -0.21436,-10.7122 -0.0602,-0.20959 -0.20444,-0.57818 -0.32044,-0.81909 -0.76503,-1.58885 -2.15198,-2.6605 -3.93667,-3.04172 -0.3419,-0.073 -0.85395,-0.0769 -10.22604,-0.0769 -10.73966,0 -10.09145,-0.0144 -10.90355,0.24218 -0.84738,0.26772 -1.57232,0.71168 -2.22745,1.36411 -0.61884,0.61628 -1.02487,1.26326 -1.32298,2.10805 -0.30348,0.86002 -0.28169,0.0322 -0.28169,10.70267 0,10.35588 -0.012,9.78729 0.22215,10.5005 0.56219,1.7122 2.01715,2.96926 3.79566,3.27938 0.33214,0.0579 1.53973,0.0655 10.3791,0.0655 10.89433,0 10.3045,0.0126 11.05367,-0.23638 1.6888,-0.56131 2.9123,-1.95836 3.26545,-3.72866 0.0702,-0.35162 0.0748,-0.96217 0.0747,-9.83804 0,-8.84548 -0.005,-9.48743 -0.0743,-9.83521 -0.21781,-1.0927 -0.67606,-1.92034 -1.48713,-2.68589 -0.62359,-0.58859 -1.33238,-0.969 -2.21131,-1.18682 l -0.45859,-0.11365 -9.46385,-0.0147 c -6.65976,-0.0103 -9.61585,-8.9e-4 -9.97682,0.0319 -1.21335,0.11027 -2.22459,0.57224 -3.03544,1.3867 -0.44638,0.44837 -0.66685,0.75406 -0.9399,1.30319 -0.27681,0.5567 -0.43046,1.10439 -0.48702,1.73596 -0.0596,0.66607 -0.057,18.22748 0.003,18.76396 0.21846,1.95904 1.70751,3.48697 3.64439,3.73954 0.2498,0.0326 3.28678,0.042 10.30499,0.032 9.08812,-0.0129 9.97468,-0.0202 10.22605,-0.0842 0.64613,-0.16438 1.19107,-0.41872 1.64435,-0.76749 0.28645,-0.22041 0.74662,-0.70023 0.93725,-0.97728 0.20706,-0.30091 0.49175,-0.93284 0.60177,-1.33572 l 0.0983,-0.3599 v -9.63252 c 0,-9.06016 -0.004,-9.64978 -0.0746,-9.92309 -0.4274,-1.66476 -1.69584,-2.87172 -3.34204,-3.18006 -0.31327,-0.0587 -1.42747,-0.0647 -10.1334,-0.0548 l -9.78143,0.0111 -0.32501,0.0927 c -0.79217,0.22601 -1.40938,0.57946 -1.94217,1.11221 -0.53278,0.53274 -0.88626,1.1499 -1.11229,1.94202 l -0.0927,0.32498 -0.0126,9.48432 c -0.009,6.75644 8.5e-4,9.55739 0.034,9.73837 0.26561,1.45093 1.32088,2.55398 2.76776,2.89308 0.27763,0.0651 1.10444,0.0708 10.27391,0.0708 9.56749,0 9.9856,-0.003 10.30755,-0.0786 1.34551,-0.31528 2.33323,-1.26278 2.69877,-2.58884 l 0.0934,-0.33872 0.002,-9.5055 c 0.002,-10.68585 0.0317,-9.6993 -0.31715,-10.45153 -0.39752,-0.85727 -0.98086,-1.41575 -1.88821,-1.80777 -0.67447,-0.2914 -0.049,-0.27604 -10.72766,-0.2635 -9.06753,0.0106 -9.64695,0.0157 -9.88612,0.0862 -1.34455,0.39618 -2.25238,1.2859 -2.6177,2.56549 l -0.0923,0.32331 -0.0129,9.31496 c -0.01,6.93005 -4.2e-4,9.39626 0.0363,9.63252 0.17843,1.14984 1.03545,2.0844 2.17467,2.37138 0.32983,0.0831 0.48588,0.0844 10.22605,0.0836 11.0723,-8e-4 10.18028,0.0254 10.88109,-0.32045 0.30612,-0.1511 0.46715,-0.26535 0.70246,-0.49844 0.5358,-0.53073 0.80086,-1.09947 0.86728,-1.861 0.0209,-0.23983 0.0328,-4.45521 0.0268,-9.49233 l -0.0108,-9.06092 -0.0905,-0.33027 c -0.14504,-0.52948 -0.35832,-0.89024 -0.76915,-1.30105 -0.40793,-0.4079 -0.75143,-0.61201 -1.2946,-0.76926 l -0.33684,-0.0975 h -9.63323 c -10.83045,0 -9.81489,-0.0312 -10.54362,0.32414 -0.29006,0.14144 -0.4302,0.24618 -0.72194,0.53963 -0.3996,0.40191 -0.60177,0.73793 -0.76722,1.27513 l -0.0976,0.31686 -0.013,9.1456 c -0.008,5.94815 0.002,9.25813 0.0294,9.46747 0.10805,0.81904 0.5642,1.46342 1.27393,1.79964 0.5102,0.24169 -0.0408,0.2304 10.65989,0.21834 l 9.85573,-0.0112 0.28281,-0.11009 c 0.37908,-0.14757 0.65769,-0.33212 0.91988,-0.60931 0.24037,-0.25414 0.48387,-0.71789 0.55336,-1.05385 0.031,-0.14968 0.0414,-3.10608 0.0336,-9.5529 l -0.0112,-9.33613 -0.096,-0.25404 c -0.13204,-0.34965 -0.4423,-0.79186 -0.69892,-0.99616 -0.26197,-0.20857 -0.65376,-0.39756 -0.9539,-0.46015 -0.31654,-0.066 -19.09168,-0.0663 -19.4105,-4.2e-4 -0.84564,0.17504 -1.56848,0.90911 -1.72621,1.75303 -0.0344,0.18409 -0.044,2.80748 -0.035,9.52667 l 0.0125,9.27261 0.11052,0.23288 c 0.25613,0.53969 0.71713,0.8629 1.33607,0.93673 0.19949,0.0238 4.15738,0.0349 9.92274,0.0278 10.71446,-0.0132 9.75817,0.0159 10.2334,-0.31139 0.24939,-0.17176 0.53176,-0.55568 0.61562,-0.83704 0.041,-0.13752 0.0527,-2.20656 0.0535,-9.47194 l 0.001,-9.29599 -0.15973,-0.32318 c -0.23732,-0.48013 -0.60862,-0.77153 -1.12207,-0.88062 -0.13164,-0.028 -3.44223,-0.0386 -9.66409,-0.0311 -9.32037,0.0112 -9.46693,0.0127 -9.66651,0.0952 -0.29578,0.12229 -0.57999,0.3529 -0.75963,0.61635 -0.30808,0.45183 -0.28686,-0.27556 -0.28686,9.83609 0,6.78355 0.0125,9.14178 0.0491,9.26405 0.0657,0.21914 0.3087,0.49556 0.52014,0.59159 0.16522,0.0751 0.54197,0.078 9.93499,0.0789 l 9.76326,9.3e-4 0.22964,-0.11643 c 0.1504,-0.0763 0.27355,-0.17978 0.35692,-0.30003 l 0.1273,-0.1836 0.0124,-9.21604 c 0.009,-6.62175 -7.2e-4,-9.26149 -0.0342,-9.37746 -0.0647,-0.22364 -0.30531,-0.4752 -0.54193,-0.5665 -0.18931,-0.073 -0.63252,-0.0765 -9.61997,-0.0765 H 109.632 l -0.16937,0.0914 c -0.19819,0.10694 -0.36106,0.2728 -0.47154,0.48021 -0.0762,0.14305 -0.0794,0.46223 -0.0916,9.18794 -0.009,6.16323 0.001,9.08805 0.0314,9.19155 0.0279,0.0962 0.0836,0.16985 0.15223,0.20112 0.0814,0.0371 2.49623,0.0493 9.72024,0.0493 h 9.61199 l 0.10394,-0.10392 0.10393,-0.10393 v -9.07663 -9.07663 l -0.098,-0.0921 -0.098,-0.0921 h -9.34468 c -9.28822,0 -9.34519,5e-4 -9.42937,0.0847 -0.0836,0.0835 -0.0847,0.14113 -0.0847,4.33282 v 4.24814 l 0.22596,-0.0187 c 0.41069,-0.0341 0.71537,0.23245 0.71537,0.62571 0,0.50592 -0.57334,0.81425 -0.98897,0.53185 -0.3111,-0.21139 -0.29111,0.13517 -0.29111,-5.04819 0,-4.42431 0.004,-4.6588 0.0774,-4.796 0.0426,-0.0794 0.14229,-0.17908 0.22165,-0.22163 0.13848,-0.0743 0.52186,-0.0774 9.56644,-0.0772 9.26452,0 9.42444,0.002 9.55749,0.0827 0.0744,0.0454 0.1697,0.13497 0.21172,0.19909 0.073,0.11134 0.0769,0.52869 0.0874,9.25709 0.0107,8.94199 0.009,9.14449 -0.0705,9.32473 -0.0593,0.13403 -0.12817,0.20804 -0.25276,0.2716 l -0.17125,0.0874 h -9.68507 c -9.56386,0 -9.68723,-0.001 -9.85814,-0.0838 -0.0952,-0.0461 -0.21078,-0.1461 -0.25685,-0.22228 -0.0828,-0.13687 -0.0838,-0.24731 -0.0838,-9.34762 0,-8.97549 0.002,-9.21444 0.0812,-9.41961 0.10666,-0.27657 0.39697,-0.58152 0.67194,-0.70585 l 0.22077,-0.0998 h 9.5062 c 8.02131,0 9.53266,0.009 9.67558,0.0591 0.24617,0.0858 0.49577,0.26909 0.62975,0.46241 0.25348,0.36574 0.2383,-0.25515 0.2383,9.74521 0,10.43889 0.0373,9.45491 -0.37427,9.86605 -0.42242,0.42195 0.69138,0.38136 -10.46576,0.38136 -10.95518,0 -10.01738,0.0275 -10.39508,-0.30493 -0.10719,-0.0944 -0.2464,-0.26916 -0.30934,-0.38847 l -0.11444,-0.21693 -0.0112,-9.25144 c -0.008,-6.31825 0.003,-9.31945 0.0331,-9.46591 0.10921,-0.5286 0.48122,-1.04563 0.92099,-1.28 0.52897,-0.28192 -0.21634,-0.26268 10.17543,-0.26268 6.13887,0 9.50758,0.0148 9.65609,0.0426 0.56361,0.10518 1.0992,0.53312 1.36227,1.08846 l 0.13614,0.28739 0.0124,9.37847 c 0.0139,10.48039 0.0371,9.65413 -0.28585,10.15385 -0.30189,0.46704 -0.78095,0.7729 -1.33564,0.85274 -0.40737,0.0586 -19.28253,0.0586 -19.6899,0 -0.55469,-0.0798 -1.03375,-0.3857 -1.33564,-0.85274 -0.32315,-0.49994 -0.29985,0.32945 -0.28591,-10.17502 l 0.0125,-9.39964 0.10426,-0.29638 c 0.21759,-0.61855 0.721,-1.1861 1.29682,-1.46203 0.55982,-0.26827 -0.13283,-0.25146 10.39338,-0.25215 10.60322,-6.7e-4 9.79062,-0.022 10.39405,0.27247 0.58411,0.28503 1.03061,0.79972 1.26746,1.46101 l 0.12957,0.36176 v 9.44198 c 0,9.04745 -0.003,9.4526 -0.0779,9.69603 -0.28786,0.93876 -1.02611,1.62642 -1.95461,1.82068 -0.44642,0.0934 -19.75161,0.0934 -20.19803,0 -0.93786,-0.19622 -1.71964,-0.93999 -1.95589,-1.86082 -0.0728,-0.2837 -0.0766,-0.76726 -0.0766,-9.69823 0,-10.63353 -0.0348,-9.60149 0.35034,-10.39464 0.16779,-0.34557 0.25233,-0.45925 0.59999,-0.80688 0.34766,-0.34763 0.46135,-0.43217 0.80694,-0.59995 0.79385,-0.3854 -0.27496,-0.35031 10.67065,-0.35031 10.86396,0 9.95575,-0.0267 10.65568,0.31383 0.68742,0.3345 1.18834,0.82444 1.4973,1.46448 0.34807,0.72103 0.3173,-0.29331 0.3173,10.45816 v 9.569 l -0.14013,0.40224 c -0.39933,1.1463 -1.3434,1.96583 -2.4852,2.15734 -0.22269,0.0374 -2.79208,0.0464 -10.3319,0.0365 l -10.0355,-0.0133 -0.36813,-0.13174 c -0.80789,-0.28912 -1.47779,-0.87259 -1.8335,-1.59693 -0.37255,-0.75865 -0.339,0.27899 -0.339,-10.48663 v -9.54783 l 0.0945,-0.3599 c 0.2049,-0.78004 0.67436,-1.51645 1.30392,-2.04535 0.3586,-0.30127 1.0107,-0.6314 1.5021,-0.76046 l 0.35993,-0.0945 h 9.82378 9.82377 l 0.37541,0.0992 c 1.50388,0.39753 2.59538,1.56981 2.86174,3.07351 0.0302,0.17062 0.0445,3.27902 0.0445,9.68723 0,8.4553 -0.007,9.4699 -0.0673,9.76234 -0.33688,1.6348 -1.66515,2.84838 -3.34143,3.05293 -0.52927,0.0646 -19.41731,0.0657 -19.99597,0.001 -1.44498,-0.16111 -2.65005,-1.0741 -3.18129,-2.41021 -0.27729,-0.69741 -0.26007,-0.006 -0.26007,-10.43914 0,-9.40635 5.9e-4,-9.4717 0.0876,-9.89859 0.35841,-1.7586 1.7414,-3.13937 3.50423,-3.49858 0.4182,-0.0852 0.53292,-0.0862 10.1393,-0.0862 10.59002,0 10.05328,-0.0118 10.75051,0.23709 1.64181,0.58616 2.78473,2.00645 2.99495,3.72177 0.0608,0.49599 0.0639,18.60588 0.003,19.0745 -0.16658,1.28763 -0.83409,2.40756 -1.87962,3.15358 -0.37337,0.26641 -0.99284,0.55375 -1.48537,0.689 l -0.42344,0.11627 H 118.75679 108.4884 l -0.42344,-0.1166 c -1.5231,-0.41942 -2.6951,-1.51966 -3.16823,-2.97427 -0.2295,-0.70558 -0.21928,-0.21821 -0.21928,-10.45816 0,-9.04412 0.004,-9.54489 0.0769,-9.88656 0.23434,-1.09692 0.70394,-1.98532 1.42943,-2.70425 0.86465,-0.85685 1.91293,-1.35285 3.13925,-1.48538 0.56734,-0.0613 18.91209,-0.0616 19.50945,-4.2e-4 1.3703,0.14061 2.64042,0.81606 3.49228,1.8572 0.48609,0.59412 0.79563,1.21579 1.03497,2.07867 l 0.11157,0.40224 0.0113,9.58089 c 0.0124,10.53055 0.0241,10.01222 -0.24315,10.80978 -0.62182,1.85588 -2.13426,3.16193 -4.03985,3.48856 -0.32951,0.0565 -1.62187,0.0645 -10.4428,0.0645 -11.16581,0 -10.36305,0.0201 -11.27389,-0.28244 -1.45265,-0.48252 -2.68893,-1.72442 -3.18369,-3.19816 -0.27415,-0.81662 -0.25159,0.0686 -0.26679,-10.47067 -0.0123,-8.51089 -0.006,-9.6194 0.0525,-10.02479 0.089,-0.61147 0.23685,-1.10562 0.48973,-1.63644 0.81029,-1.70082 2.31513,-2.8728 4.17459,-3.25121 0.35408,-0.0721 0.91267,-0.0762 10.34627,-0.0762 h 9.97198 l 0.44461,0.099 c 2.09234,0.46606 3.69051,1.89399 4.34011,3.87778 0.29751,0.90859 0.28036,0.19844 0.26539,10.99063 -0.0124,8.95191 -0.0191,9.74054 -0.0851,10.01358 -0.19472,0.80599 -0.51964,1.55094 -0.94185,2.15938 -0.29546,0.42578 -1.07666,1.18832 -1.50371,1.46777 -0.86654,0.56707 -1.73168,0.87118 -2.75235,0.9675 -0.33903,0.032 -3.49676,0.0418 -10.39542,0.0323 -9.33479,-0.0129 -9.93042,-0.0181 -10.28767,-0.0898 -0.56874,-0.11411 -1.10492,-0.29886 -1.59494,-0.54955 -0.62266,-0.31854 -0.9675,-0.57131 -1.47888,-1.08404 -0.80696,-0.8091 -1.28491,-1.66934 -1.57789,-2.84004 l -0.0901,-0.35989 -0.0135,-9.69603 c -0.009,-6.77172 4.2e-4,-9.80187 0.0322,-10.04699 0.13892,-1.06613 0.57991,-2.14693 1.24084,-3.04107 0.31883,-0.43132 1.0151,-1.10139 1.46201,-1.40699 0.80163,-0.54815 1.68139,-0.90623 2.62122,-1.06689 0.47232,-0.0807 0.74678,-0.083 10.30176,-0.083 6.72257,0 9.9209,0.0142 10.14774,0.0452 1.34542,0.18358 2.59012,0.78045 3.55935,1.70679 1.01842,0.97336 1.62469,2.07035 1.92474,3.4826 l 0.0978,0.46024 0.0129,9.44198 c 0.009,6.80761 -4.7e-4,9.5756 -0.0351,9.92088 -0.30878,3.08353 -2.66585,5.47009 -5.73661,5.80838 -0.30008,0.0331 -3.37779,0.0427 -10.5648,0.0329 l -10.14136,-0.0138 -0.40898,-0.0942 c -0.5337,-0.1229 -1.19214,-0.35372 -1.61995,-0.56789 -1.99888,-1.00067 -3.32992,-2.94889 -3.53808,-5.17862 -0.0589,-0.63042 -0.0591,-18.53093 -4.2e-4,-19.1956 0.0953,-1.07618 0.40011,-2.05858 0.91361,-2.94423 1.18579,-2.04514 3.2148,-3.32814 5.60155,-3.54198 0.32931,-0.0295 3.68844,-0.0392 10.16737,-0.0292 l 9.67557,0.0149 0.48368,0.0934 c 3.0786,0.59458 5.36897,2.9949 5.78481,6.06251 0.0506,0.37328 0.0604,1.9657 0.0611,9.93001 5.5e-4,6.39057 -0.0137,9.60249 -0.0438,9.84422 -0.1034,0.83214 -0.29426,1.48405 -0.65384,2.23332 -1.01479,2.11454 -2.92546,3.55528 -5.23035,3.94396 l -0.52992,0.0894 -10.3948,-0.0123 -10.39479,-0.0123 -0.42344,-0.0966 c -2.76704,-0.63147 -4.77709,-2.55294 -5.48213,-5.24052 -0.22091,-0.8421 -0.21564,-0.55674 -0.20296,-10.98329 l 0.0118,-9.67463 0.0964,-0.48171 c 0.14637,-0.73149 0.36247,-1.35773 0.71043,-2.05873 0.38017,-0.76589 0.74526,-1.2894 1.30819,-1.87581 0.71931,-0.74932 1.38231,-1.23119 2.28801,-1.66293 0.8089,-0.3856 1.62151,-0.61507 2.52838,-0.714 0.2773,-0.0302 3.56835,-0.0448 10.10743,-0.0448 8.40649,0 9.76117,0.009 10.18431,0.064 3.13616,0.41108 5.69601,2.6437 6.5047,5.67319 0.26652,0.99845 0.25231,0.37989 0.25255,10.98824 0,5.89676 -0.0156,9.80024 -0.0402,9.9946 -0.18136,1.43032 -0.76205,2.79466 -1.67325,3.93134 -0.27054,0.33748 -0.96338,1.01118 -1.32224,1.28571 -1.16029,0.88762 -2.55892,1.41706 -4.11112,1.55622 -0.33596,0.0301 -3.74022,0.0397 -10.53192,0.0296 l -10.03549,-0.0149 -0.46579,-0.0909 c -1.77912,-0.34735 -3.11985,-1.05842 -4.29963,-2.28037 -1.0517,-1.08927 -1.73042,-2.39191 -2.03806,-3.91154 l -0.0986,-0.48692 v -10.03475 -10.03475 l 0.11855,-0.55043 c 0.7832,-3.63652 3.64531,-6.27801 7.27046,-6.71005 0.29248,-0.0349 3.15844,-0.0437 10.50128,-0.0323 11.06769,0.0171 10.1619,-0.004 11.15505,0.26032 2.29337,0.61036 4.25343,2.19108 5.30797,4.2807 0.41076,0.81392 0.65584,1.54877 0.82058,2.4604 l 0.0986,0.5454 v 9.75954 c 0,10.58959 0.0106,10.08903 -0.23623,11.1 -0.83832,3.43279 -3.7804,5.98324 -7.31605,6.3422 -0.59081,0.06 -20.32291,0.0613 -20.86046,0.001 -1.60311,-0.17867 -3.12174,-0.79439 -4.35737,-1.76669 -0.41688,-0.32804 -1.14217,-1.06494 -1.45615,-1.47946 -0.70445,-0.93003 -1.23468,-2.04053 -1.495,-3.13109 -0.23484,-0.98381 -0.21988,-0.32012 -0.23803,-10.55822 -0.0116,-6.55091 -0.003,-9.65209 0.0292,-10.0771 0.23962,-3.20247 2.0928,-5.99379 4.93442,-7.4324 0.73795,-0.37359 1.54714,-0.65601 2.28657,-0.79804 0.93249,-0.1791 0.62052,-0.17419 11.07293,-0.17419 11.11852,0 10.29461,-0.0198 11.48542,0.27675 3.58696,0.89343 6.31175,3.99865 6.74292,7.68437 0.0556,0.47504 0.0642,1.83654 0.0642,10.12481 0,10.59936 0.0139,10.03113 -0.2739,11.17151 -0.81933,3.2462 -3.29437,5.73633 -6.52229,6.56208 -1.15947,0.29661 -0.45135,0.28094 -12.06801,0.26684 l -10.45893,-0.0127 -0.47089,-0.0945 c -1.55729,-0.31247 -2.84288,-0.89191 -4.01756,-1.81076 -0.38662,-0.30242 -1.3067,-1.23049 -1.59455,-1.60841 -0.51994,-0.68261 -1.06428,-1.69007 -1.34204,-2.48381 -0.15558,-0.4446 -0.36247,-1.28161 -0.43787,-1.77144 -0.0444,-0.28879 -0.0554,-2.32146 -0.0554,-10.28879 0,-9.38865 0.004,-9.95424 0.0768,-10.39465 0.26982,-1.63675 0.91066,-3.17258 1.83245,-4.39162 0.33836,-0.44747 1.23528,-1.38196 1.63853,-1.70714 1.18692,-0.95717 2.64655,-1.65814 4.0953,-1.96672 0.90905,-0.19363 0.31476,-0.18277 10.96707,-0.20035 7.28255,-0.012 10.14716,-0.003 10.50128,0.0317 3.38935,0.33534 6.30973,2.358 7.79285,5.39735 0.45974,0.94213 0.75143,1.89798 0.91741,3.00619 0.0715,0.47761 0.0761,1.08982 0.0761,10.20412 0,10.26587 0.005,9.99796 -0.19443,10.99513 -0.43344,2.17002 -1.67032,4.20828 -3.4048,5.61076 -1.14541,0.92617 -2.64614,1.64611 -4.04218,1.93914 -1.05713,0.22188 -0.32084,0.20714 -11.15927,0.2235 -10.65182,0.0161 -10.92069,0.0119 -11.89863,-0.18224 -1.56254,-0.31027 -3.09813,-1.00932 -4.15526,-1.89157 -0.75058,-0.62642 -1.41603,-1.31952 -1.90647,-1.98569 -0.71662,-0.97339 -1.288198,-2.25878 -1.580896,-3.55517 -0.219599,-0.97266 -0.212879,-0.62198 -0.212613,-11.09594 0,-6.66781 0.01461,-9.86406 0.04585,-10.14634 0.181939,-1.64423 0.791939,-3.29393 1.734329,-4.69039 0.39097,-0.57934 1.0551,-1.32574 1.67131,-1.87832 0.80542,-0.72226 1.34292,-1.09074 2.25957,-1.54904 1.07683,-0.53837 2.16668,-0.8682 3.35506,-1.01533 0.4589,-0.0568 1.79086,-0.065 10.54663,-0.065 10.9271,-1e-5 10.38773,-0.0112 11.51046,0.23906 4.40755,0.98251 7.65022,4.70928 8.04462,9.2456 0.0589,0.67763 0.0579,19.07562 -0.001,19.73078 -0.12818,1.4237 -0.51727,2.74849 -1.16892,3.98003 -1.4196,2.68286 -3.99952,4.6359 -6.96769,5.27468 -1.00277,0.21581 -0.32991,0.20294 -11.46681,0.21929 -7.24717,0.0106 -10.49282,0.001 -10.81886,-0.0308 -2.03051,-0.20064 -3.84248,-0.91845 -5.39718,-2.13809 -0.71741,-0.5628 -1.3063,-1.16897 -2.05535,-2.11568 -0.6836,-0.86399 -1.444054,-2.55608 -1.713763,-3.81333 -0.2454,-1.14391 -0.229174,-0.43071 -0.245633,-10.79688 -0.0109,-6.86702 -0.0016,-9.7158 0.03332,-10.20412 0.18951,-2.64979 1.208556,-4.94116 3.048186,-6.85401 1.75094,-1.82063 3.78525,-2.87829 6.33596,-3.29414 l 0.58726,-0.0957 9.78144,-0.0145 c 6.66851,-0.01 9.9903,0 10.43776,0.0309 1.5092,0.10437 2.79777,0.44814 4.12853,1.10142 1.08789,0.53405 1.96243,1.14652 2.81049,1.96829 1.58664,1.53744 2.61343,3.37595 3.099,5.54885 0.24163,1.08129 0.22597,0.3639 0.24169,11.07209 0.015,10.24395 0.0144,10.28901 -0.16284,11.25763 -0.19711,1.07733 -0.46387,1.87666 -0.96961,2.90535 -1.67416,3.40529 -4.87417,5.63886 -8.70265,6.07436 -0.52414,0.0596 -20.94222,0.0598 -21.46834,0 -2.65093,-0.30037 -4.88755,-1.40216 -6.75471,-3.32747 -0.47512,-0.48992 -1.16065,-1.363 -1.510898,-1.92424 -0.565545,-0.90627 -1.105294,-2.26786 -1.341627,-3.38444 -0.227116,-1.07303 -0.212029,-0.34637 -0.228556,-11.00859 -0.01121,-7.22895 -0.0022,-9.9792 0.03367,-10.3523 0.260987,-2.70988 1.350228,-5.0748 3.249021,-7.05415 0.45577,-0.4751 0.92369,-0.88289 1.53535,-1.33803 1.23557,-0.91942 2.86593,-1.64878 4.38259,-1.96061 1.1871,-0.24407 0.37089,-0.2268 11.43284,-0.24184 11.04511,-0.015 10.6305,-0.0226 11.83512,0.21772 2.20988,0.44095 4.24336,1.52802 5.86745,3.13664 0.67597,0.66953 1.012,1.07657 1.52326,1.84515 1.02684,1.54367 1.5956,3.1101 1.88977,5.20458 0.0687,0.48922 0.1034,18.57488 0.0379,19.75195 -0.0246,0.44246 -0.0834,1.0408 -0.13061,1.32964 -0.61696,3.77434 -2.95332,6.93565 -6.37188,8.62175 -1.1507,0.56755 -2.3157,0.91788 -3.68392,1.10781 -0.51841,0.072 -1.15845,0.0764 -10.98824,0.0764 -8.37139,0 -10.52997,-0.011 -10.90354,-0.0558 -1.0656,-0.12762 -2.14037,-0.40225 -3.10191,-0.79262 -0.54574,-0.22156 -1.30359,-0.59561 -1.56664,-0.77324 -0.064,-0.0432 -0.29733,-0.1993 -0.51858,-0.3469 -0.6323,-0.42182 -1.16132,-0.86009 -1.76053,-1.45849 -0.63934,-0.63849 -0.965329,-1.0385 -1.520321,-1.86556 -0.896526,-1.336 -1.445917,-2.76265 -1.736552,-4.50944 -0.178835,-1.07484 -0.188456,-1.62827 -0.189705,-10.90984 -10e-4,-7.51878 0.0085,-8.97688 0.06264,-9.65368 0.09145,-1.14209 0.209251,-1.77964 0.571596,-3.09337 0.383284,-1.38965 1.431439,-3.17501 2.663682,-4.53714 0.79426,-0.87797 2.11676,-1.91377 3.15833,-2.47364 1.64575,-0.88463 3.30926,-1.34933 5.25065,-1.46676 0.93295,-0.0564 18.68564,-0.0585 19.69811,-0.002 2.36312,0.13117 4.38388,0.79742 6.30102,2.07746 3.07986,2.05635 5.09149,5.50294 5.39825,9.24899 0.0584,0.71311 0.0573,19.18944 -10e-4,19.90842 -0.10273,1.26306 -0.39656,2.49756 -0.88293,3.70961 -0.14186,0.35353 -0.59132,1.27549 -0.78966,1.61981 -0.40847,0.70911 -1.05097,1.54793 -1.70854,2.2306 -1.08866,1.13022 -2.10906,1.8741 -3.49799,2.55009 -1.21586,0.59175 -2.12449,0.87654 -3.6204,1.13474 l -0.5293,0.0914 -10.48011,0.0144 c -10.87903,0.0149 -10.87685,0.015 -11.95239,-0.16173 -3.12493,-0.51338 -5.95426,-2.25563 -7.859232,-4.83957 -1.184756,-1.60703 -1.968905,-3.52821 -2.26964,-5.56069 -0.140141,-0.94715 -0.154648,-2.15099 -0.137918,-11.44558 0.01476,-8.20353 0.02382,-9.22238 0.08617,-9.69603 0.190805,-1.44957 0.437348,-2.38072 0.980938,-3.70481 0.297664,-0.72505 0.338988,-0.80743 0.711546,-1.41842 1.203117,-1.97308 2.562686,-3.36137 4.440666,-4.53447 1.49425,-0.93339 3.23762,-1.5376 5.20217,-1.80294 0.53988,-0.0729 1.13746,-0.0772 10.75534,-0.0772 10.73816,0 10.47294,-0.004 11.56236,0.1899 2.36477,0.42168 4.61861,1.52406 6.39145,3.12614 1.23387,1.11503 2.17867,2.36544 2.90111,3.83954 0.68613,1.40001 0.98356,2.33422 1.26042,3.95885 0.09,0.52785 0.0902,0.55591 0.10578,10.5005 0.0165,10.53789 0.0185,10.41199 -0.18109,11.56078 -0.96262,5.54209 -5.39747,9.83028 -10.9671,10.6044 -1.0277,0.14283 -1.99768,0.15392 -11.98332,0.13697 -10.5558,-0.0179 -10.12009,-0.009 -11.26347,-0.22097 -3.32604,-0.6155 -6.23743,-2.45697 -8.201094,-5.18723 -1.182021,-1.64347 -1.975444,-3.58475 -2.277118,-5.57147 -0.17281,-1.13804 -0.177074,-1.44256 -0.160065,-11.42833 0.01756,-10.30949 0.0074,-9.80549 0.222357,-11.00859 0.464698,-2.60064 1.727587,-5.05719 3.59772,-6.99821 2.12982,-2.21057 4.68602,-3.51884 7.89797,-4.04221 l 0.57164,-0.0931 10.22605,-0.0147 c 10.66893,-0.0153 10.63975,-0.0157 11.77159,0.1665 3.53934,0.56986 6.74455,2.55271 8.8541,5.47745 1.25889,1.74536 2.13229,3.92613 2.42491,6.05472 0.15409,1.1209 0.16032,1.61682 0.14292,11.36849 -0.0183,10.24666 -0.007,9.71973 -0.22401,10.93441 -0.25774,1.44588 -0.87497,3.15205 -1.57391,4.35059 -1.65165,2.83226 -4.11311,4.9075 -7.14218,6.02153 -1.1812,0.43442 -2.37242,0.68849 -3.72653,0.7948 -0.75603,0.0593 -20.20453,0.0581 -21.007,-0.001 -4.7261,-0.35018 -8.829831,-2.9955 -11.064766,-7.13249 -0.75904,-1.40502 -1.293589,-3.07155 -1.507493,-4.69982 -0.145502,-1.10755 -0.158785,-2.16631 -0.142635,-11.36848 0.0172,-9.79717 0.01069,-9.51297 0.248122,-10.83923 0.65412,-3.65386 2.656595,-6.87186 5.628232,-9.04462 1.88106,-1.37536 4.0381,-2.25479 6.37276,-2.59819 1.15173,-0.16941 1.75504,-0.17751 11.85628,-0.15932 10.47699,0.0189 9.91078,0.007 11.22113,0.24118 4.68149,0.83767 8.66199,4.00602 10.53484,8.3854 0.54045,1.26377 0.87992,2.52003 1.0755,3.98003 0.072,0.53778 0.0766,1.16518 0.0766,10.60635 0,8.05723 -0.0111,10.13071 -0.0561,10.52167 -0.51667,4.48414 -2.88505,8.27935 -6.63066,10.62528 -1.7072,1.06924 -3.45306,1.70321 -5.63264,2.04535 l -0.59549,0.0935 -10.58596,0.0132 c -11.44335,0.0143 -11.10451,0.02 -12.38559,-0.20676 -3.93812,-0.69697 -7.4596,-3.07781 -9.57493,-6.47352 -1.06981,-1.71735 -1.726377,-3.52031 -2.027091,-5.56647 -0.162041,-1.10259 -0.175968,-2.13901 -0.158209,-11.77205 0.01825,-9.90365 0.0088,-9.45409 0.224465,-10.71221 1.03925,-6.06367 5.626025,-10.83172 11.643445,-12.10359 0.28048,-0.0593 0.82354,-0.15153 1.2068,-0.20501 l 0.69686,-0.0972 h 10.31073 c 11.01725,0 10.65922,-0.006 11.89863,0.21061 4.14777,0.72602 7.7724,3.15664 10.03267,6.72778 1.11619,1.76353 1.80368,3.64711 2.17329,5.95436 l 0.0916,0.5716 0.0143,10.11943 c 0.0127,8.98174 0.007,10.19084 -0.0525,10.75455 -0.35933,3.41966 -1.76218,6.46716 -4.09079,8.8867 -2.32494,2.41572 -5.30076,3.9394 -8.64756,4.42772 -1.16126,0.16943 -1.85983,0.17855 -12.28763,0.16031 -10.84667,-0.019 -10.23997,-0.006 -11.58105,-0.24652 -3.4831,-0.62458 -6.627705,-2.47217 -8.895359,-5.22642 -1.69423,-2.05777 -2.825641,-4.62174 -3.21335,-7.282 -0.173009,-1.18709 -0.178479,-1.58493 -0.160454,-11.66487 0.01877,-10.49206 0.0057,-9.89444 0.245705,-11.24903 0.757312,-4.2745 3.318049,-8.07052 7.026878,-10.4166 1.85948,-1.17624 3.83455,-1.89473 6.22455,-2.26436 l 0.61399,-0.095 10.37425,-0.0139 c 9.17715,-0.0123 10.44998,-0.006 11.03058,0.0524 3.59781,0.36357 6.78454,1.83599 9.35381,4.32192 2.48869,2.40797 4.07475,5.52691 4.57402,8.99466 0.17396,1.20824 0.17987,1.63587 0.16138,11.68604 -0.0192,10.42408 -0.006,9.81887 -0.2438,11.18339 -0.37354,2.14318 -1.23015,4.25084 -2.46754,6.07127 -2.43312,3.57959 -6.35004,6.0235 -10.61568,6.62352 -1.23801,0.17414 -1.50961,0.1777 -12.25855,0.16068 -11.18465,-0.0177 -10.53205,-0.004 -11.85629,-0.24147 -4.30251,-0.77018 -8.105218,-3.33853 -10.440678,-7.05164 -1.133998,-1.80293 -1.920112,-3.96247 -2.219437,-6.09706 -0.157993,-1.12668 -0.160348,-1.26686 -0.178822,-10.64869 -0.02043,-10.37416 -0.01456,-10.64355 0.267829,-12.27881 1.200203,-6.95018 6.790968,-12.3514 13.756738,-13.29032 1.30638,-0.17609 1.68621,-0.1813 11.96214,-0.16403 8.96061,0.0151 9.89631,0.023 10.4166,0.0887 3.89734,0.49184 7.08311,2.00624 9.72098,4.621 2.82023,2.79551 4.46504,6.3943 4.76111,10.41712 0.0329,0.44645 0.0419,3.57193 0.0303,10.52167 -0.0145,8.77169 -0.024,9.94385 -0.0843,10.39464 -0.58411,4.36991 -2.51681,7.93218 -5.79112,10.67391 -2.48141,2.07781 -5.71739,3.38735 -9.03928,3.65803 -0.31462,0.0256 -4.49106,0.04 -10.96706,0.0376 -9.75148,-0.004 -10.5062,-0.009 -11.15761,-0.0797 z m -34.66629,-0.72407 c -0.178648,-0.0515 -0.381569,-0.25976 -0.432339,-0.44362 -0.06352,-0.23002 -0.01055,-0.43113 0.161059,-0.61152 0.178674,-0.18781 0.39437,-0.24662 0.63744,-0.1738 0.113211,0.0339 1.026073,0.0454 3.139947,0.0397 1.639182,-0.004 2.861239,-0.0149 2.715682,-0.0232 l -0.264649,-0.015 v -0.29436 -0.29437 h 1.016253 1.016253 v 0.29383 0.29383 l -0.15879,0.0166 c -0.08733,0.009 0.355689,0.0198 0.984495,0.0238 l 1.143285,0.007 -0.01381,-0.33883 -0.01381,-0.33882 h 1.014851 1.014848 l 0.02513,0.45516 c 0.01382,0.25034 0.01833,0.5028 0.01003,0.56102 -0.0083,0.0582 -0.01753,0.22493 -0.0205,0.37048 l -0.0054,0.26463 h -1.016253 -1.016253 v -0.27601 -0.27601 l -0.963323,0.0114 -0.963323,0.0114 -0.01261,0.26463 -0.01261,0.26463 h -1.01423 -1.014233 v -0.27522 -0.27521 h -2.55605 -2.55605 l -0.02661,0.19414 c -0.05782,0.42176 -0.427554,0.67637 -0.818431,0.56357 z m 9.852996,-3.35108 c 0,-0.21541 0.01252,-0.57742 0.02756,-0.80447 l 0.02734,-0.41283 h 0.988696 0.988695 v 0.29639 0.29638 h 0.900015 0.900019 l 1.59827,-1.59857 1.598273,-1.59856 v -1.73721 -1.73721 l -0.223635,-0.22085 -0.223639,-0.22084 h -1.433344 -1.433349 l -0.184975,-0.18496 -0.184975,-0.18496 v -3.21411 -3.2141 l -0.264649,-0.26207 -0.264649,-0.26208 -1.684228,-0.0119 -1.684232,-0.0119 -0.697611,-0.70118 -0.697615,-0.70118 v -2.75023 -2.75022 l -0.519322,-0.51804 -0.519327,-0.51804 -0.401652,-4.2e-4 -0.401658,-4.3e-4 -0.65633,-0.64532 -0.65633,-0.64532 -0.01255,-1.08218 -0.01254,-1.08217 -0.633202,-0.6321 -0.633198,-0.63209 v -5.7629 -5.7629 l -0.44196,-0.42996 c -0.392557,-0.3819 -0.458825,-0.42996 -0.592814,-0.42996 -0.08297,0 -0.150854,0.019 -0.150854,0.0423 0,0.0272 -0.423439,0.0423 -1.185629,0.0423 h -1.185628 v -0.31756 -0.31755 h 1.185628 c 1.025662,0 1.185629,0.009 1.185629,0.0635 0,0.0479 0.05151,0.0635 0.209521,0.0635 0.189151,0 0.233408,0.0202 0.455197,0.2073 0.135119,0.11402 0.398113,0.36216 0.584426,0.55142 l 0.338751,0.34413 0.01104,5.76787 0.01103,5.76786 0.624123,0.62505 0.624119,0.62504 0.0122,1.06864 0.0122,1.06865 0.537657,0.53985 0.537653,0.53984 h 0.352051 c 0.223915,0 0.393671,0.0221 0.466397,0.0606 0.06288,0.0333 0.37158,0.31938 0.685984,0.63568 l 0.571642,0.57509 0.01137,2.76216 0.01138,2.76216 0.580869,0.58218 0.580873,0.58219 1.651979,0.003 c 0.908589,0.002 1.680561,0.0159 1.715494,0.0318 0.03493,0.0158 0.220718,0.1941 0.412853,0.39615 l 0.349337,0.36739 v 3.21252 c 0,2.44218 0.01219,3.22472 0.05081,3.26334 0.03752,0.0375 0.42581,0.0508 1.484246,0.0508 h 1.433433 l 0.325955,0.30572 c 0.179275,0.16815 0.339953,0.32534 0.357064,0.34931 0.01711,0.024 0.0314,0.90131 0.03176,1.94962 l 6.35e-4,1.90603 -1.726715,1.72469 -1.726711,1.72469 h -0.983297 -0.983293 v 0.29638 0.29639 h -1.016252 -1.016253 l 4.23e-4,-0.39166 z m -3.853512,-0.21975 v -0.56907 l -2.424187,-0.0142 -2.424187,-0.0142 -0.204313,0.2086 -0.204314,0.2086 -0.550788,-0.009 c -0.302932,-0.005 -0.578459,-0.0197 -0.612275,-0.0327 -0.03382,-0.013 -0.11891,-0.10704 -0.189087,-0.20903 l -0.127595,-0.18544 h -1.398097 c -0.80306,0 -1.430122,-0.0171 -1.473338,-0.0403 -0.04139,-0.0221 -0.259263,-0.24135 -0.484173,-0.48711 l -0.408927,-0.44686 -0.0014,-4.05392 c -0.0011,-3.49747 -0.0099,-4.06521 -0.06352,-4.13611 -0.05189,-0.0686 -0.06217,-0.3254 -0.06217,-1.55363 v -1.47144 l -0.123039,-0.0727 c -0.161182,-0.0952 -0.3004,-0.34827 -0.3004,-0.54605 0,-0.19778 0.139218,-0.45085 0.3004,-0.54605 l 0.123039,-0.0727 v -0.84442 -0.84442 h -0.27037 -0.270374 l -0.0309,-1.28081 c -0.017,-0.70444 -0.01897,-1.45228 -0.0044,-1.66187 0.01458,-0.20959 0.03779,-0.61447 0.05156,-0.89974 l 0.02505,-0.51867 h 0.800562 0.800566 l -0.01097,2.16996 -0.01097,2.16996 -0.328165,0.0124 -0.328165,0.0124 v 0.83788 0.83788 l 0.106588,0.057 c 0.424747,0.2273 0.437264,0.84924 0.02257,1.12164 l -0.128912,0.0847 v 0.97543 0.97543 l 0.202586,0.19953 0.20259,0.19952 h 1.32917 1.329174 l 0.305685,-0.29638 0.305684,-0.29639 h 0.581022 0.581017 l 0.3233,0.31348 0.323304,0.31347 3.068593,0.0311 3.068588,0.0311 0.21188,0.2021 c 0.227307,0.21682 0.220748,0.19575 0.254928,0.81845 l 0.01366,0.24889 0.565049,0.56617 0.56505,0.56617 h 1.590601 c 1.180674,0 1.603698,-0.0131 1.641413,-0.0508 0.03824,-0.0383 0.05081,-0.60686 0.05081,-2.29898 v -2.24817 l -0.160576,-0.15679 -0.160573,-0.15678 h -0.85568 -0.855677 v -0.35855 -0.35855 l -0.487285,-0.0119 -0.48728,-0.0119 -2.921402,-2.92109 -2.921397,-2.92109 v -2.48794 -2.48794 h -1.482035 -1.482036 v -0.82564 -0.82564 h 0.76219 0.76219 v -1.92651 -1.9265 h -0.338751 -0.338751 v -0.21515 -0.21515 l -2.350843,0.0309 -2.350843,0.0309 -0.147759,0.13935 c -0.202874,0.19132 -0.457132,0.22948 -0.706563,0.10605 -0.239586,-0.11857 -0.341406,-0.26752 -0.362472,-0.53026 -0.01392,-0.17372 0.0017,-0.24218 0.08184,-0.35896 0.164709,-0.23996 0.30516,-0.31911 0.559752,-0.31542 0.271429,0.004 0.456526,0.12188 0.566625,0.3611 l 0.07361,0.15995 0.783362,0.001 c 0.430849,5.5e-4 1.485245,-0.0116 2.343098,-0.027 l 1.559741,-0.028 -0.02907,-0.28945 -0.02907,-0.28946 h 0.300705 0.300705 v -0.44458 -0.44457 h -0.232891 -0.232892 v -0.33873 -0.33872 h -0.839721 c -0.827421,0 -0.840475,0.001 -0.890928,0.0953 -0.08433,0.15689 -0.332632,0.29286 -0.534816,0.29286 -0.585798,0 -0.874591,-0.67508 -0.464305,-1.08534 0.273415,-0.27339 0.655348,-0.25518 0.935266,0.0446 l 0.174487,0.18687 h 0.810009 0.810008 v -0.20234 c 0,-0.19284 -0.01294,-0.21516 -0.275235,-0.47511 l -0.275235,-0.27277 v -0.83607 -0.83606 l -0.476369,-0.012 -0.476368,-0.012 -0.01244,-0.30697 -0.01244,-0.30697 h 1.123968 1.123967 v 0.31756 0.31755 H 74.591038 74.1676 v 0.73171 0.7317 l 0.244705,0.24213 0.244705,0.24214 h 0.623344 0.623344 v 0.91032 0.91033 h -0.338751 -0.338751 v 0.44457 0.44458 h 0.290509 0.290509 l 0.0267,0.22229 c 0.03438,0.28622 0.03447,0.62956 4.23e-4,0.95704 l -0.0272,0.26026 H 75.559169 75.31114 v 1.9265 1.9265 h 0.76219 0.762189 v 0.82565 c 0,0.70568 -0.0092,0.82564 -0.06352,0.82564 -0.05571,0 -0.06351,0.29288 -0.06351,2.38192 v 2.38192 l 1.31266,1.31205 1.31266,1.31205 v -1.06884 -1.06885 h -0.296407 -0.296407 v -1.01618 -1.01617 h 0.804533 0.804534 v 1.01617 1.01618 h -0.296407 -0.296407 v 1.28107 1.28106 l 1.281156,1.28055 1.28116,1.28055 h 0.391423 0.391427 v -0.23288 -0.23287 h 1.016253 1.016253 v 0.68395 0.68394 l 0.211719,0.22385 0.211719,0.22384 v 2.38908 c 0,2.33143 -0.0021,2.39169 -0.08538,2.49761 -0.04696,0.0597 -0.150257,0.14863 -0.229546,0.19763 -0.14123,0.0873 -0.179085,0.0889 -1.861809,0.0771 l -1.71765,-0.012 -0.508749,-0.50743 c -0.315949,-0.31512 -0.508753,-0.47959 -0.508753,-0.43399 0,0.0676 -0.07936,0.0734 -1.001534,0.0734 h -1.001535 l 0.02754,-0.48207 c 0.03727,-0.65253 0.02022,-0.72099 -0.200494,-0.80528 -0.154013,-0.0588 -0.471838,-0.0676 -2.457652,-0.0676 h -2.280763 l -0.207553,0.19413 -0.207553,0.19413 -0.483237,-0.0142 -0.483241,-0.0142 -0.18973,-0.18631 c -0.104352,-0.10247 -0.212227,-0.24061 -0.239717,-0.30697 l -0.04998,-0.12066 h -1.426251 -1.426248 l -0.135335,0.13962 -0.13534,0.13962 0.0016,3.99918 0.0016,3.99919 0.207392,0.22229 0.207388,0.22229 h 1.333095 1.333095 l 0.09049,-0.14641 c 0.04977,-0.0805 0.14806,-0.19484 0.218423,-0.25404 0.124592,-0.10483 0.144523,-0.10764 0.763506,-0.10764 h 0.635573 l 0.264582,0.25404 0.264581,0.25405 h 1.958714 c 1.894596,0 1.96224,-0.003 2.066376,-0.0847 0.09926,-0.0781 0.171781,-0.0847 0.929474,-0.0847 h 0.82181 l 0.203708,0.19054 c 0.202115,0.18903 0.206083,0.19053 0.506314,0.19053 h 0.302602 v 0.22229 c 0,0.12226 -0.01258,0.4938 -0.02776,0.82564 l -0.0276,0.60336 H 79.814322 78.82583 v -0.56907 z m -6.372753,-1.33627 c 0.01439,-0.0233 0.0071,-0.0423 -0.01618,-0.0423 -0.02329,0 -0.05412,0.0191 -0.06851,0.0423 -0.01439,0.0233 -0.0071,0.0423 0.01618,0.0423 0.02329,0 0.05412,-0.0191 0.06851,-0.0423 z m 10.268389,-4.53046 v -0.29639 h -0.995081 -0.995081 v 0.23288 0.23287 h -1.016253 -1.016253 v -0.19053 -0.19053 h -0.171874 c -0.103802,0 -0.161512,-0.0168 -0.145705,-0.0423 0.01733,-0.028 -0.775676,-0.0423 -2.347019,-0.0423 h -2.373188 l -0.05959,0.14262 c -0.03277,0.0784 -0.128907,0.19548 -0.213629,0.26009 -0.124249,0.0948 -0.19808,0.11748 -0.381802,0.11748 -0.241809,0 -0.365089,-0.0658 -0.540303,-0.28858 -0.133506,-0.16971 -0.122954,-0.52211 0.02129,-0.71122 0.124889,-0.16373 0.345467,-0.28252 0.524599,-0.28252 0.151726,0 0.426847,0.13663 0.507787,0.25218 0.05993,0.0856 0.09013,0.0865 2.633607,0.0865 h 2.572988 l -0.01889,-0.3599 -0.01889,-0.35989 h 1.021563 1.021563 v 0.16875 c 0,0.0928 0.023,0.25477 0.05113,0.35989 l 0.05113,0.19115 h 0.943955 0.943955 v -0.29639 -0.29638 h 0.995081 0.995081 v 0.16304 c 0,0.0897 0.02092,0.22305 0.04649,0.29639 l 0.04649,0.13334 h 0.990935 0.99094 v -0.29639 -0.29638 h 0.989839 0.989835 l 0.03067,0.24346 c 0.04283,0.33998 0.04342,0.56676 0.0026,0.995 l -0.0353,0.37048 h -0.988831 -0.988836 v -0.29638 -0.29639 h -1.011315 -1.011312 l -0.02553,0.0953 c -0.01405,0.0524 -0.02579,0.18577 -0.02611,0.29639 l -5.93e-4,0.20111 h -0.995081 -0.995081 v -0.29638 z m -3.429854,-0.809 c 0,-0.0208 -0.02858,-0.0378 -0.06352,-0.0378 -0.03493,0 -0.06351,0.028 -0.06351,0.0622 0,0.0379 0.02483,0.0527 0.06351,0.0378 0.03493,-0.0134 0.06352,-0.0414 0.06352,-0.0622 z m 7.494866,-2.49358 V 160.856 h 0.381095 0.381095 v -3.59209 c 0,-1.97566 -0.01258,-4.08105 -0.02796,-4.67865 l -0.02796,-1.08656 h -0.226099 -0.226104 v -0.50809 -0.50809 h 0.458402 c 0.680221,0 0.642539,0.0753 0.642539,-1.28354 v -1.08754 H 87.886843 87.63278 v -0.91032 -0.91033 h 0.423438 0.423439 v -1.0261 -1.0261 l -0.470872,-0.47218 c -0.470254,-0.47155 -0.471067,-0.47212 -0.617878,-0.43159 -0.240013,0.0663 -0.454282,0.006 -0.640853,-0.18071 l -0.165908,-0.1659 h -0.51311 -0.513106 v 0.1482 c 0,0.14113 -0.0071,0.14819 -0.148204,0.14819 h -0.148203 v 0.58267 0.58266 l -0.688554,0.68756 -0.688558,0.68755 h -0.81465 -0.814654 v 0.29639 0.29638 h -1.778442 -1.778443 v -0.82564 -0.82564 h 0.30549 0.305494 l -0.771277,-0.77532 -0.771272,-0.77532 v -1.15119 -1.15118 H 77.47025 77.173843 v -0.71979 -0.7198 h 0.296407 0.296407 v -0.41811 -0.41811 l -0.132325,-0.0265 c -0.07278,-0.0146 -0.225218,-0.0265 -0.338751,-0.0265 h -0.206426 v -0.91033 -0.91032 h 0.625897 0.625898 l 0.242152,-0.24469 0.242152,-0.24469 v -0.72915 -0.72914 h -0.423439 -0.423439 v -0.31756 -0.31756 h 1.122113 1.122113 v 0.31756 0.31756 h -0.486955 -0.486955 v 0.83745 0.83745 l -0.275235,0.27277 -0.275235,0.27277 v 0.77394 0.77394 h -0.254063 -0.254063 v 0.44458 0.44457 h 0.296407 0.296407 v 0.25405 0.25404 h 0.435481 0.435481 l 0.07383,-0.12499 c 0.142289,-0.24085 0.35109,-0.32994 0.7172,-0.30602 0.162876,0.0106 0.435676,0.29253 0.472367,0.4881 0.06317,0.3367 -0.13232,0.66438 -0.446906,0.74908 -0.247322,0.0666 -0.446778,0.011 -0.634662,-0.17686 l -0.163575,-0.16356 h -0.449853 -0.449857 l 0.01931,0.23288 0.01931,0.23287 h -0.289302 -0.289306 v 1.06949 1.06949 l 0.857464,0.85641 0.857463,0.85641 1.143285,0.0112 1.143285,0.0112 0.01244,0.30697 0.01244,0.30697 h 0.707972 0.707973 l 0.581661,-0.58274 0.581661,-0.58273 v -0.47578 -0.47579 H 84.68988 84.541677 v -0.71979 -0.71979 h 0.508126 0.508127 v 0.33872 0.33873 h 0.518962 0.518962 l 0.05546,-0.12529 c 0.130174,-0.29406 0.601491,-0.40901 0.90585,-0.22091 0.18774,0.11602 0.287333,0.31826 0.287333,0.58347 v 0.2033 l 0.529298,0.5349 0.529299,0.5349 v 1.12897 c 0,1.10446 0.0019,1.12898 0.08553,1.12898 0.08349,0 0.08526,0.0215 0.0741,0.89974 l -0.01143,0.89974 -0.243477,0.0127 -0.243477,0.0127 v 1.18093 c 0,0.74161 -0.01575,1.19066 -0.04234,1.20709 -0.02424,0.015 -0.04234,0.23332 -0.04234,0.51059 v 0.48442 h -0.254063 -0.254063 v 4.67865 4.67865 h 0.402266 0.402267 v 0.80447 0.80448 h -0.995081 -0.995081 z m -4.065012,-0.0635 c 0,-0.53486 0.01526,-0.82564 0.04334,-0.82564 0.02384,0 -1.992859,-2.02858 -4.481553,-4.50795 l -4.5249,-4.50794 -0.02738,-1.68301 -0.02738,-1.68302 -0.455158,-0.45653 -0.455154,-0.45654 h -0.3798 -0.379795 l -0.998244,-0.99501 -0.998249,-0.995 h -0.249596 c -0.239916,0 -0.256557,0.007 -0.429146,0.18738 -0.142919,0.14914 -0.218863,0.19327 -0.372211,0.21626 -0.530268,0.0795 -0.920239,-0.48503 -0.657698,-0.95212 0.24039,-0.42769 0.85994,-0.42758 1.112657,0 0.07208,0.122 0.08167,0.12487 0.418684,0.12487 h 0.34492 l 0.997105,0.99156 0.997105,0.99156 0.392939,0.014 0.392942,0.014 0.56466,0.5716 0.56466,0.5716 0.0269,0.77951 c 0.01479,0.42873 0.02689,1.1597 0.02689,1.6244 v 0.8449 l 4.62288,4.64202 4.62288,4.64202 0.645075,0.0116 0.645075,0.0117 0.02733,0.2424 c 0.03927,0.34834 0.03976,0.6586 0.0017,1.05746 l -0.03337,0.34931 h -0.98903 -0.98903 v -0.82564 z m 0.921475,0.16144 c -0.04049,-0.0106 -0.116704,-0.011 -0.169376,-8.4e-4 -0.05267,0.0101 -0.01955,0.0188 0.07361,0.0193 0.09316,4.6e-4 0.13625,-0.008 0.09577,-0.0184 z m -10.067752,-3.27246 c -0.05241,-0.0331 -0.06735,-0.21253 -0.08543,-1.02617 -0.01205,-0.54232 -0.01459,-1.01938 -0.0056,-1.06013 0.01481,-0.0674 0.08904,-0.0741 0.826446,-0.0736 l 0.810183,4.7e-4 0.07838,0.16366 c 0.06127,0.12794 0.0682,0.18269 0.03176,0.25078 -0.02856,0.0534 -0.04684,0.36298 -0.0472,0.7991 -6.35e-4,0.80331 -0.01496,0.89607 -0.142097,0.92147 -0.209895,0.0419 -1.407108,0.0619 -1.46639,0.0244 z m -2.879383,-1.00461 v -0.87657 l -0.529299,-0.5349 -0.529298,-0.5349 v -3.9283 -3.92829 l -0.179962,-0.16279 c -0.165649,-0.14985 -0.200062,-0.16293 -0.43272,-0.16453 l -0.252759,-0.002 -0.753602,-0.75355 -0.753603,-0.75355 0.01128,-3.6638 0.01128,-3.66379 0.474124,-0.49928 c 0.301569,-0.31756 0.484122,-0.54479 0.501597,-0.62434 0.04081,-0.18579 0.255901,-0.40719 0.445081,-0.45812 0.179301,-0.0483 0.344713,-0.0239 0.50089,0.0738 0.09925,0.0621 0.119964,0.0441 1.25973,-1.09503 l 1.158825,-1.15816 v -0.37103 -0.37103 l 0.451657,-0.48912 c 0.313179,-0.33917 0.488441,-0.49649 0.571642,-0.51313 0.06599,-0.0132 0.119986,-0.0407 0.119986,-0.061 0,-0.0204 0.50495,-0.037 1.122112,-0.037 h 1.122113 v 0.31756 0.31755 h -1.122113 c -0.8587,0 -1.122112,-0.0122 -1.122112,-0.052 0,-0.0286 -0.161966,0.10912 -0.359923,0.30604 l -0.359923,0.35802 v 0.38037 0.38038 l -1.25973,1.26253 c -0.692852,0.69439 -1.261674,1.2953 -1.264046,1.33536 -0.0024,0.0401 -0.0071,0.12523 -0.01059,0.18927 -0.004,0.0736 -0.0675,0.17766 -0.172593,0.28275 -0.222521,0.2225 -0.464872,0.26522 -0.742445,0.13086 -0.105695,-0.0512 -0.192173,-0.11123 -0.192173,-0.13348 0,-0.0222 -0.161237,0.12712 -0.358306,0.33192 l -0.358309,0.37237 -0.0016,3.4926 -0.0016,3.4926 0.624043,0.62503 0.624043,0.62504 h 0.198906 c 0.27156,0 0.353432,0.041 0.659616,0.33071 l 0.264649,0.25037 v 3.93364 3.93364 l 0.47703,0.47564 0.477033,0.47564 h 0.666251 0.666256 v 1.01618 1.01618 h -0.825706 -0.825705 v -0.87657 z m 12.406755,-3.12463 v -0.82565 h 0.667852 0.667852 l 0.348401,-0.35019 c 0.326175,-0.32786 0.348401,-0.36162 0.348401,-0.52926 0,-0.17642 -0.0022,-0.17906 -0.148204,-0.17906 h -0.148203 v -0.52926 -0.52926 h 0.72115 0.72115 l -0.01189,0.51867 -0.01189,0.51868 -0.328165,0.0124 -0.328165,0.0124 v 0.25541 c 0,0.25219 -0.003,0.25851 -0.23622,0.50304 l -0.23622,0.24763 0.0049,0.85008 0.0049,0.85008 H 84.1198 83.101985 Z M 70.48351,153.74957 c 0,-0.74145 0.01255,-1.7227 0.02788,-2.18055 l 0.02788,-0.83245 h 0.268528 0.268524 v -0.33873 -0.33872 H 70.779918 70.48351 v -1.01618 -1.01618 h 0.825706 0.825706 v 1.01618 1.01618 h -0.322873 -0.322872 l 0.02647,0.13231 c 0.01456,0.0728 0.02647,0.2252 0.02647,0.33873 v 0.20641 h 0.317579 0.317579 v 1.15751 c 0,0.63663 -0.01258,1.61788 -0.02794,2.18055 l -0.02795,1.02303 h -0.81894 -0.818935 z m 19.869478,-1.65787 c -0.403042,-0.24572 -0.408479,-0.86603 -0.0096,-1.09298 l 0.125885,-0.0716 4.23e-4,-0.94208 4.23e-4,-0.94208 H 90.2584 90.046681 v -0.71979 -0.7198 h 0.910393 0.910393 v 0.7198 0.71979 h -0.486954 -0.486955 l 4.24e-4,0.94208 4.23e-4,0.94208 0.125884,0.0716 c 0.282146,0.16053 0.38607,0.5863 0.212562,0.87085 -0.117665,0.19297 -0.321381,0.30626 -0.550699,0.30626 -0.115607,0 -0.244824,-0.0331 -0.32855,-0.0841 z m -8.817726,-1.43981 v -1.01618 h 0.804533 c 0.776303,0 0.804534,0.003 0.804534,0.0847 0,0.0819 0.02823,0.0847 0.846877,0.0847 h 0.846878 v -0.14819 c 0,-0.14114 0.0071,-0.14819 0.148203,-0.14819 h 0.148204 v -0.69863 -0.69862 h -0.465783 -0.465782 v -0.45916 c 0,-0.25254 0.01242,-0.66219 0.02761,-0.91032 l 0.0276,-0.45117 h 0.713414 0.713409 v 0.88666 c 0,0.54543 -0.01629,0.89672 -0.04234,0.91282 -0.02545,0.0157 -0.04234,0.30389 -0.04234,0.72229 v 0.69613 h 0.340055 0.340055 l -0.01189,0.51867 -0.01189,0.51867 -0.70926,0.0116 -0.70926,0.0116 v -0.14921 -0.14922 h -0.846878 -0.846877 v 0.69862 0.69862 H 82.3398 81.535267 Z m -13.844876,-1.0056 c 0.0035,-0.22705 -0.01201,-0.46045 -0.03452,-0.51867 -0.02425,-0.0627 -0.02588,-0.14578 -0.004,-0.20388 0.02031,-0.0539 0.03694,-0.27778 0.03694,-0.4975 v -0.39948 h 0.799198 0.799203 l 0.01823,0.60588 c 0.01003,0.33323 0.01015,0.79051 4.23e-4,1.01617 l -0.01795,0.41031 h -0.8019 -0.8019 l 0.0064,-0.41283 z m 22.355994,-4.73157 v -0.69862 h 0.677502 0.677502 v -0.65343 c 0,-0.60465 -0.006,-0.65533 -0.08041,-0.67895 -0.135098,-0.0429 -0.298075,-0.23666 -0.344721,-0.40989 -0.06587,-0.24459 -0.01082,-0.44694 0.171069,-0.62881 0.26951,-0.2695 0.620029,-0.26918 0.890039,8e-4 0.281963,0.28194 0.269506,0.62403 -0.03345,0.91845 l -0.188083,0.18278 0.03118,1.33314 0.03119,1.33314 H 90.962287 90.04638 v -0.69863 z m -21.450403,-1.67328 c -0.325535,-0.16113 -0.448002,-0.56616 -0.268011,-0.88638 0.24039,-0.4277 0.85994,-0.42758 1.112657,0 l 0.07377,0.12486 h 1.02656 c 0.695587,0 1.041714,-0.0152 1.073553,-0.047 0.03332,-0.0333 0.03428,-0.0834 0.0033,-0.17233 -0.09949,-0.28537 0.049,-0.64114 0.321556,-0.77047 0.438487,-0.20806 0.925188,0.0899 0.925188,0.56638 0,0.37825 -0.296767,0.65087 -0.68603,0.63022 -0.167966,-0.009 -0.226747,0.009 -0.3384,0.1029 l -0.135128,0.11369 h -1.083774 -1.083779 l -0.176133,0.18381 c -0.243609,0.25423 -0.470661,0.29994 -0.765319,0.1541 z m 14.040225,-0.43605 v -0.47921 l -0.317579,-0.30902 -0.317579,-0.30902 v -1.65572 -1.65572 l -0.239979,-0.24249 -0.239976,-0.24249 -0.156643,0.1614 c -0.530268,0.54636 -1.384009,-0.0927 -1.01082,-0.75661 0.235474,-0.41894 0.864552,-0.42171 1.109926,-0.005 0.04207,0.0715 0.105652,0.12995 0.141285,0.12995 0.03563,0 0.18752,0.11785 0.337531,0.26188 l 0.272741,0.26188 0.210547,-0.20736 0.210546,-0.20736 v -0.39325 -0.39324 h 0.529299 0.529298 v 0.71979 0.71979 h -0.54309 c -0.796314,0 -0.727226,-0.16738 -0.727226,1.76186 v 1.56587 l 0.160576,0.15679 0.160573,0.15679 h 0.474586 0.474581 v 0.71979 0.71979 h -0.529298 -0.529299 z m 5.970487,-5.25796 v -0.82564 h 0.338751 0.338751 v -0.2858 -0.2858 l -0.399883,-0.39165 -0.399883,-0.39166 h -1.928886 -1.928882 v 0.31756 0.31756 H 84.11853 83.610404 v -0.43439 -0.4344 l -0.836681,-0.83583 -0.836677,-0.83583 h -0.857078 c -0.543154,0 -0.857074,0.0155 -0.857074,0.0423 0,0.0272 -0.402267,0.0423 -1.122113,0.0423 h -1.122113 v -0.31755 -0.31756 h 1.122113 c 0.719846,0 1.122113,0.0152 1.122113,0.0423 0,0.027 0.34849,0.0423 0.960786,0.0423 h 0.960791 l 0.787313,0.78331 0.787316,0.7833 h 0.453778 0.453779 v 0.16936 0.16937 h 1.923644 1.923644 l 0.213807,-0.22229 0.213811,-0.22229 9.31e-4,-0.79389 9.32e-4,-0.79389 h 0.804534 0.804533 v 0.71979 0.7198 h -0.529298 -0.529299 v 0.68244 0.68245 l 0.127032,0.14467 c 0.120943,0.13774 0.127032,0.16287 0.127032,0.52426 v 0.3796 h 0.359923 0.359922 v 0.31755 0.31756 h 0.250342 0.250341 l 0.02937,-0.17384 c 0.0376,-0.22253 0.284208,-0.48067 0.490168,-0.51309 0.253352,-0.0399 0.420996,0.011 0.588673,0.17867 0.267423,0.2674 0.269142,0.61171 0.0044,0.88994 -0.20701,0.21759 -0.465558,0.26182 -0.743668,0.12719 -0.105695,-0.0512 -0.192174,-0.11037 -0.192174,-0.13158 0,-0.0212 -0.152437,-0.0386 -0.338751,-0.0386 h -0.338751 v 0.33873 0.33873 h -0.910393 -0.910393 v -0.82565 z m -1.600247,0.71295 c -0.126541,-0.027 -0.381404,-0.28324 -0.415072,-0.41737 -0.02622,-0.10446 -0.02914,-0.10504 -0.529904,-0.10504 H 85.55793 v 0.23287 0.23287 h -0.508127 -0.508126 v -0.71979 -0.71979 h 0.508126 0.508127 v 0.25404 0.25405 l 0.561056,-7.2e-4 c 0.541117,-7.2e-4 0.564579,-0.004 0.660209,-0.10527 0.285783,-0.30129 0.876581,-0.17186 1.02794,0.22519 0.10395,0.2727 -0.0057,0.63514 -0.238295,0.78752 -0.111936,0.0733 -0.402787,0.11546 -0.562398,0.0814 z m -18.463145,-2.66832 c -0.233776,-0.11519 -0.358453,-0.31784 -0.358453,-0.58263 0,-0.24179 0.06585,-0.36506 0.288603,-0.54026 0.16083,-0.1265 0.513678,-0.12226 0.69717,0.008 l 0.135691,0.0966 0.668483,-0.66746 0.668487,-0.66746 0.01931,-0.23281 0.0193,-0.23282 0.507644,-0.50285 0.507644,-0.50286 h 0.515278 c 0.432187,0 0.515279,-0.0103 0.515279,-0.0642 0,-0.0561 0.14839,-0.0628 1.175042,-0.0529 l 1.175043,0.0112 v 0.29639 0.29638 l -1.153871,0.0113 c -0.760576,0.007 -1.15387,-0.003 -1.15387,-0.0318 0,-0.0265 -0.175431,-0.043 -0.456035,-0.043 h -0.456031 l -0.390847,0.39245 c -0.386815,0.3884 -0.390842,0.39459 -0.390842,0.60088 v 0.20844 l -0.804534,0.80833 c -0.442493,0.44458 -0.804534,0.83503 -0.804534,0.86767 0,0.0326 -0.03925,0.14043 -0.08723,0.23953 -0.14745,0.30457 -0.530501,0.43432 -0.836728,0.28343 z m 17.349916,-1.50598 c -0.0019,-0.12226 -5.51e-4,-0.33185 0.003,-0.46575 l 0.0065,-0.24346 h -0.631 -0.630996 l -0.05857,0.10943 c -0.103518,0.19341 -0.288404,0.29149 -0.547798,0.29058 -0.268236,-9.3e-4 -0.419861,-0.0816 -0.550483,-0.29295 -0.09011,-0.14578 -0.112182,-0.41245 -0.04807,-0.58064 0.106745,-0.28002 0.4632,-0.45508 0.762516,-0.37449 0.168329,0.0453 0.428092,0.26934 0.428092,0.36919 0,0.0433 0.139705,0.0555 0.635158,0.0555 0.395208,0 0.635158,-0.016 0.635158,-0.0423 0,-0.0267 0.294561,-0.0423 0.798995,-0.0423 h 0.798991 l 0.02625,0.15878 c 0.03398,0.20556 0.03384,0.77465 -4.23e-4,1.05852 l -0.0267,0.22229 h -0.798635 -0.798636 l -0.0035,-0.22229 z m -7.914837,-3.39785 v -0.31755 h 0.444611 0.444611 v -0.41405 -0.41404 l -0.265789,-0.26341 -0.265788,-0.2634 h -3.436908 -3.436904 l -0.07557,0.12792 c -0.0845,0.14304 -0.361431,0.29548 -0.53676,0.29548 -0.286037,0 -0.580289,-0.2483 -0.633875,-0.5349 -0.05637,-0.3015 0.162656,-0.64836 0.461519,-0.73087 0.248821,-0.0687 0.437475,-0.0115 0.636187,0.19297 l 0.1785,0.18365 h 3.50529 3.505289 l 0.394124,0.39409 0.394124,0.3941 v 0.51623 0.51623 h 0.465783 0.465783 v 0.31755 0.31756 H 79.10049 77.978377 Z"
       id="path85" />
  </g>
</svg>
